<svg width="30" height="26" viewBox="0 0 30 26" fill="none" xmlns="http://www.w3.org/2000/svg">
<path d="M26.8315 0.383301H8.57857C7.73894 0.383301 7.08183 0.867056 6.64376 1.5996L0.0605469 12.8227L6.64376 24.032C7.08183 24.7645 7.73894 25.2621 8.57857 25.2621H26.8315C28.17 25.2621 29.2652 24.0182 29.2652 22.4978V3.14761C29.2652 1.62724 28.17 0.383301 26.8315 0.383301ZM23.1809 17.7846L21.4651 19.7335L17.0966 14.7715L12.7281 19.7335L11.0123 17.7846L15.3808 12.8227L11.0123 7.86076L12.7281 5.91192L17.0966 10.8739L21.4651 5.91192L23.1809 7.86076L18.8124 12.8227L23.1809 17.7846Z" fill="#222222"/>
</svg>
