<svg width="13" height="8" viewBox="0 0 13 8" fill="none" xmlns="http://www.w3.org/2000/svg">
<path fill-rule="evenodd" clip-rule="evenodd" d="M11.9291 0.34082H11.2383C10.8567 0.34082 10.5474 0.650136 10.5474 1.0317V7.0193C10.5474 7.40086 10.8567 7.71018 11.2383 7.71018H11.9291C12.3107 7.71018 12.62 7.40086 12.62 7.0193V1.0317C12.62 0.650136 12.3107 0.34082 11.9291 0.34082ZM8.01413 1.95288H8.70501C9.08657 1.95288 9.39588 2.2622 9.39588 2.64376V7.01932C9.39588 7.40088 9.08657 7.71019 8.70501 7.71019H8.01413C7.63257 7.71019 7.32325 7.40088 7.32325 7.01932V2.64376C7.32325 2.2622 7.63257 1.95288 8.01413 1.95288ZM5.48088 3.56495H4.79C4.40844 3.56495 4.09913 3.87426 4.09913 4.25582V7.01933C4.09913 7.40089 4.40844 7.71021 4.79 7.71021H5.48088C5.86244 7.71021 6.17176 7.40089 6.17176 7.01933V4.25582C6.17176 3.87426 5.86244 3.56495 5.48088 3.56495ZM2.25675 4.94794H1.56588C1.18432 4.94794 0.875 5.25725 0.875 5.63881V7.02057C0.875 7.40213 1.18432 7.71144 1.56588 7.71144H2.25675C2.63832 7.71144 2.94763 7.40213 2.94763 7.02057V5.63881C2.94763 5.25725 2.63832 4.94794 2.25675 4.94794Z" fill="black"/>
</svg>
