<svg width="13" height="8" viewBox="0 0 13 8" fill="none" xmlns="http://www.w3.org/2000/svg">
<path fill-rule="evenodd" clip-rule="evenodd" d="M11.933 0.339844H11.2422C10.8606 0.339844 10.5513 0.64916 10.5513 1.03072V7.01832C10.5513 7.39988 10.8606 7.7092 11.2422 7.7092H11.933C12.3146 7.7092 12.6239 7.39988 12.6239 7.01832V1.03072C12.6239 0.64916 12.3146 0.339844 11.933 0.339844ZM8.01804 1.95191H8.70891C9.09047 1.95191 9.39979 2.26122 9.39979 2.64278V7.01834C9.39979 7.3999 9.09047 7.70922 8.70891 7.70922H8.01804C7.63647 7.70922 7.32716 7.3999 7.32716 7.01834V2.64278C7.32716 2.26122 7.63647 1.95191 8.01804 1.95191ZM5.48821 3.56397H4.79733C4.41577 3.56397 4.10645 3.87329 4.10645 4.25485V7.01836C4.10645 7.39992 4.41577 7.70923 4.79733 7.70923H5.48821C5.86977 7.70923 6.17908 7.39992 6.17908 7.01836V4.25485C6.17908 3.87329 5.86977 3.56397 5.48821 3.56397ZM2.26066 4.9461H1.56978C1.18822 4.9461 0.878906 5.25542 0.878906 5.63698V7.01874C0.878906 7.4003 1.18822 7.70961 1.56978 7.70961H2.26066C2.64222 7.70961 2.95154 7.4003 2.95154 7.01874V5.63698C2.95154 5.25542 2.64222 4.9461 2.26066 4.9461Z" fill="white"/>
</svg>
