<svg width="20" height="20" viewBox="0 0 20 20" fill="none" xmlns="http://www.w3.org/2000/svg">
<path d="M13.332 3.33325H14.9987C15.4407 3.33325 15.8646 3.50885 16.1772 3.82141C16.4898 4.13397 16.6654 4.55789 16.6654 4.99992V16.6666C16.6654 17.1086 16.4898 17.5325 16.1772 17.8451C15.8646 18.1577 15.4407 18.3333 14.9987 18.3333H4.9987C4.55667 18.3333 4.13275 18.1577 3.82019 17.8451C3.50763 17.5325 3.33203 17.1086 3.33203 16.6666V4.99992C3.33203 4.55789 3.50763 4.13397 3.82019 3.82141C4.13275 3.50885 4.55667 3.33325 4.9987 3.33325H6.66536" stroke="#F7F8F7" stroke-width="2" stroke-linecap="round" stroke-linejoin="round"/>
<path d="M12.5013 1.66675H7.5013C7.04106 1.66675 6.66797 2.03984 6.66797 2.50008V4.16675C6.66797 4.62699 7.04106 5.00008 7.5013 5.00008H12.5013C12.9615 5.00008 13.3346 4.62699 13.3346 4.16675V2.50008C13.3346 2.03984 12.9615 1.66675 12.5013 1.66675Z" stroke="#F7F8F7" stroke-width="2" stroke-linecap="round" stroke-linejoin="round"/>
</svg>
