<svg width="20" height="20" viewBox="0 0 20 20" fill="none" xmlns="http://www.w3.org/2000/svg">
<g clip-path="url(#clip0)">
<path d="M11.709 14.024C13.115 14.024 14.2993 13.4983 15.262 12.447L16.839 13.967C16.231 14.689 15.471 15.24 14.559 15.62C13.6597 16 12.6653 16.19 11.576 16.19C10.474 16.19 9.448 15.9873 8.498 15.582C7.56067 15.1767 6.76267 14.6067 6.104 13.872C5.458 13.1373 5.002 12.2887 4.736 11.326H2.57V9.996H4.489C4.47633 9.85667 4.47 9.64133 4.47 9.35C4.47 9.05867 4.47633 8.84333 4.489 8.704H2.57V7.374H4.736C5.002 6.41133 5.458 5.56267 6.104 4.828C6.76267 4.09333 7.56067 3.52333 8.498 3.118C9.448 2.71267 10.474 2.51 11.576 2.51C12.6653 2.51 13.6597 2.7 14.559 3.08C15.471 3.46 16.231 4.011 16.839 4.733L15.262 6.234C14.2993 5.19533 13.115 4.676 11.709 4.676C10.6957 4.676 9.80267 4.91667 9.03 5.398C8.27 5.87933 7.70633 6.538 7.339 7.374H12.792V8.704H6.978C6.95267 8.98267 6.94 9.198 6.94 9.35C6.94 9.502 6.95267 9.71733 6.978 9.996H12.792V11.326H7.339C7.70633 12.162 8.27 12.8207 9.03 13.302C9.80267 13.7833 10.6957 14.024 11.709 14.024Z" fill="#222222"/>
</g>
<defs>
<clipPath id="clip0">
<path d="M0 0H20V20H0V0Z" fill="white"/>
</clipPath>
</defs>
</svg>
