<svg width="18" height="17" viewBox="0 0 18 17" fill="none" xmlns="http://www.w3.org/2000/svg">
<g clip-path="url(#clip0)">
<path d="M8.81482 10.7136C9.9595 10.7136 10.8875 9.78567 10.8875 8.64099C10.8875 7.49631 9.9595 6.56836 8.81482 6.56836C7.67014 6.56836 6.74219 7.49631 6.74219 8.64099C6.74219 9.78567 7.67014 10.7136 8.81482 10.7136Z" stroke="#02D871" stroke-width="1.38175" stroke-linecap="round" stroke-linejoin="round"/>
<path d="M13.927 10.7133C13.835 10.9217 13.8076 11.1528 13.8482 11.3769C13.8889 11.6011 13.9957 11.8079 14.155 11.9707L14.1964 12.0121C14.3249 12.1405 14.4268 12.2929 14.4963 12.4606C14.5659 12.6283 14.6017 12.8081 14.6017 12.9897C14.6017 13.1713 14.5659 13.3511 14.4963 13.5189C14.4268 13.6866 14.3249 13.839 14.1964 13.9673C14.0681 14.0958 13.9157 14.1977 13.748 14.2672C13.5802 14.3368 13.4004 14.3726 13.2188 14.3726C13.0372 14.3726 12.8574 14.3368 12.6897 14.2672C12.522 14.1977 12.3696 14.0958 12.2412 13.9673L12.1998 13.9259C12.037 13.7666 11.8302 13.6598 11.606 13.6191C11.3819 13.5785 11.1508 13.6059 10.9424 13.6979C10.7381 13.7855 10.5638 13.9309 10.441 14.1162C10.3183 14.3016 10.2524 14.5188 10.2515 14.7411V14.8586C10.2515 15.225 10.1059 15.5765 9.84681 15.8356C9.58768 16.0947 9.23623 16.2403 8.86976 16.2403C8.5033 16.2403 8.15184 16.0947 7.89271 15.8356C7.63358 15.5765 7.48801 15.225 7.48801 14.8586V14.7964C7.48266 14.5677 7.40864 14.3459 7.27557 14.1599C7.1425 13.9738 6.95654 13.8321 6.74186 13.7532C6.53348 13.6612 6.30233 13.6338 6.07821 13.6744C5.85409 13.715 5.64729 13.8219 5.48446 13.9811L5.44301 14.0226C5.31468 14.1511 5.16229 14.253 4.99455 14.3225C4.82681 14.3921 4.647 14.4278 4.46542 14.4278C4.28384 14.4278 4.10403 14.3921 3.93629 14.3225C3.76855 14.253 3.61616 14.1511 3.48783 14.0226C3.35936 13.8943 3.25744 13.7419 3.18791 13.5741C3.11837 13.4064 3.08258 13.2266 3.08258 13.045C3.08258 12.8634 3.11837 12.6836 3.18791 12.5159C3.25744 12.3481 3.35936 12.1957 3.48783 12.0674L3.52928 12.026C3.68855 11.8631 3.7954 11.6563 3.83603 11.4322C3.87667 11.2081 3.84924 10.9769 3.75727 10.7686C3.66969 10.5642 3.52428 10.39 3.33892 10.2672C3.15357 10.1444 2.93636 10.0786 2.71405 10.0777H2.5966C2.23013 10.0777 1.87868 9.93211 1.61955 9.67298C1.36042 9.41385 1.21484 9.0624 1.21484 8.69593C1.21484 8.32947 1.36042 7.97801 1.61955 7.71889C1.87868 7.45976 2.23013 7.31418 2.5966 7.31418H2.65878C2.88745 7.30883 3.10923 7.23481 3.29528 7.10174C3.48133 6.96867 3.62304 6.78271 3.702 6.56803C3.79397 6.35965 3.8214 6.1285 3.78076 5.90438C3.74013 5.68027 3.63328 5.47346 3.47401 5.31064L3.43256 5.26918C3.30409 5.14086 3.20217 4.98846 3.13264 4.82072C3.0631 4.65298 3.02731 4.47318 3.02731 4.29159C3.02731 4.11001 3.0631 3.9302 3.13264 3.76246C3.20217 3.59472 3.30409 3.44233 3.43256 3.314C3.56089 3.18553 3.71328 3.08361 3.88102 3.01408C4.04876 2.94454 4.22857 2.90875 4.41015 2.90875C4.59173 2.90875 4.77154 2.94454 4.93928 3.01408C5.10702 3.08361 5.25941 3.18553 5.38774 3.314L5.42919 3.35545C5.59202 3.51473 5.79882 3.62157 6.02294 3.66221C6.24706 3.70284 6.47821 3.67541 6.68659 3.58344H6.74186C6.9462 3.49587 7.12047 3.35045 7.24322 3.16509C7.36598 2.97974 7.43185 2.76253 7.43274 2.54022V2.42277C7.43274 2.05631 7.57831 1.70485 7.83744 1.44572C8.09657 1.18659 8.44803 1.04102 8.81449 1.04102C9.18095 1.04102 9.53241 1.18659 9.79154 1.44572C10.0507 1.70485 10.1962 2.05631 10.1962 2.42277V2.48495C10.1971 2.70726 10.263 2.92447 10.3858 3.10982C10.5085 3.29518 10.6828 3.4406 10.8871 3.52817C11.0955 3.62014 11.3267 3.64757 11.5508 3.60694C11.7749 3.5663 11.9817 3.45946 12.1445 3.30018L12.186 3.25873C12.3143 3.13026 12.4667 3.02834 12.6344 2.95881C12.8022 2.88927 12.982 2.85348 13.1636 2.85348C13.3451 2.85348 13.5249 2.88927 13.6927 2.95881C13.8604 3.02834 14.0128 3.13026 14.1412 3.25873C14.2696 3.38706 14.3715 3.53945 14.4411 3.70719C14.5106 3.87493 14.5464 4.05474 14.5464 4.23632C14.5464 4.41791 14.5106 4.59771 14.4411 4.76545C14.3715 4.93319 14.2696 5.08559 14.1412 5.21391L14.0997 5.25537C13.9404 5.41819 13.8336 5.625 13.7929 5.84911C13.7523 6.07323 13.7797 6.30438 13.8717 6.51276V6.56803C13.9593 6.77237 14.1047 6.94664 14.2901 7.0694C14.4754 7.19215 14.6926 7.25802 14.9149 7.25891H15.0324C15.3988 7.25891 15.7503 7.40449 16.0094 7.66362C16.2686 7.92274 16.4141 8.2742 16.4141 8.64066C16.4141 9.00713 16.2686 9.35858 16.0094 9.61771C15.7503 9.87684 15.3988 10.0224 15.0324 10.0224H14.9702C14.7479 10.0233 14.5307 10.0892 14.3453 10.2119C14.16 10.3347 14.0146 10.509 13.927 10.7133V10.7133Z" stroke="#02D871" stroke-width="1.38175" stroke-linecap="round" stroke-linejoin="round"/>
</g>
<defs>
<clipPath id="clip0">
<rect x="0.527344" y="0.349609" width="16.5811" height="16.5811" fill="white"/>
</clipPath>
</defs>
</svg>
