<svg width="19" height="19" viewBox="0 0 19 19" fill="none" xmlns="http://www.w3.org/2000/svg">
<path d="M2.375 4.75H3.95833H16.625" stroke="#666666" stroke-width="1.58333" stroke-linecap="round" stroke-linejoin="round"/>
<path d="M6.33203 4.74992V3.16659C6.33203 2.74666 6.49885 2.34393 6.79578 2.047C7.09271 1.75007 7.49544 1.58325 7.91536 1.58325H11.082C11.502 1.58325 11.9047 1.75007 12.2016 2.047C12.4985 2.34393 12.6654 2.74666 12.6654 3.16659V4.74992M15.0404 4.74992V15.8333C15.0404 16.2532 14.8735 16.6559 14.5766 16.9528C14.2797 17.2498 13.877 17.4166 13.457 17.4166H5.54036C5.12044 17.4166 4.71771 17.2498 4.42078 16.9528C4.12385 16.6559 3.95703 16.2532 3.95703 15.8333V4.74992H15.0404Z" stroke="#666666" stroke-width="1.58333" stroke-linecap="round" stroke-linejoin="round"/>
<path d="M7.91797 8.70825V13.4583" stroke="#666666" stroke-width="1.58333" stroke-linecap="round" stroke-linejoin="round"/>
<path d="M11.082 8.70825V13.4583" stroke="#666666" stroke-width="1.58333" stroke-linecap="round" stroke-linejoin="round"/>
</svg>
