<svg width="11" height="8" viewBox="0 0 11 8" fill="none" xmlns="http://www.w3.org/2000/svg">
<path fill-rule="evenodd" clip-rule="evenodd" d="M5.37122 1.68669C6.90824 1.68676 8.38648 2.27684 9.50042 3.33499C9.5843 3.41668 9.71838 3.41565 9.80099 3.33268L10.6028 2.52412C10.6447 2.48204 10.668 2.42503 10.6676 2.36572C10.6673 2.30641 10.6433 2.24968 10.601 2.20809C7.67725 -0.5915 3.06473 -0.5915 0.140997 2.20809C0.0986443 2.24965 0.0746141 2.30636 0.0742236 2.36568C0.073833 2.42499 0.0971143 2.48201 0.138916 2.52412L0.940987 3.33268C1.02355 3.41577 1.15773 3.41681 1.24156 3.33499C2.35564 2.27678 3.83405 1.68669 5.37122 1.68669ZM5.37357 4.31704C6.21806 4.31699 7.03241 4.63061 7.65839 5.19697C7.74306 5.27735 7.87643 5.27561 7.95897 5.19305L8.75988 4.38449C8.80206 4.34208 8.82546 4.28455 8.82485 4.22476C8.82425 4.16498 8.79968 4.10793 8.75665 4.06639C6.8504 2.29469 3.89835 2.29469 1.9921 4.06639C1.94905 4.10793 1.92448 4.16501 1.92391 4.22481C1.92335 4.28462 1.94683 4.34214 1.9891 4.38449L2.78978 5.19305C2.87232 5.27561 3.00569 5.27735 3.09036 5.19697C3.71592 4.63099 4.52963 4.31739 5.37357 4.31704ZM6.97565 6.08715C6.97688 6.1471 6.95329 6.20491 6.91046 6.24691L5.52504 7.64386C5.48443 7.68491 5.42906 7.70802 5.37128 7.70802C5.31351 7.70802 5.25814 7.68491 5.21753 7.64386L3.83188 6.24691C3.78908 6.20487 3.76553 6.14706 3.7668 6.0871C3.76807 6.02715 3.79404 5.97037 3.83859 5.93019C4.72337 5.18247 6.0192 5.18247 6.90398 5.93019C6.9485 5.97041 6.97443 6.0272 6.97565 6.08715Z" fill="black"/>
</svg>
