<svg width="11" height="8" viewBox="0 0 11 8" fill="none" xmlns="http://www.w3.org/2000/svg">
<path fill-rule="evenodd" clip-rule="evenodd" d="M5.37512 1.68571C6.91214 1.68578 8.39038 2.27587 9.50432 3.33401C9.5882 3.4157 9.72227 3.41467 9.80489 3.3317L10.6067 2.52314C10.6486 2.48106 10.6719 2.42406 10.6715 2.36475C10.6712 2.30543 10.6472 2.24871 10.6049 2.20712C7.68115 -0.592476 3.06863 -0.592476 0.144903 2.20712C0.102551 2.24868 0.0785204 2.30539 0.0781298 2.3647C0.0777393 2.42401 0.101021 2.48103 0.142822 2.52314L0.944892 3.3317C1.02745 3.4148 1.16163 3.41583 1.24547 3.33401C2.35955 2.2758 3.83796 1.68571 5.37512 1.68571ZM5.37747 4.31692C6.22196 4.31686 7.03632 4.63049 7.6623 5.19685C7.74697 5.27723 7.88034 5.27549 7.96287 5.19293L8.76379 4.38437C8.80597 4.34196 8.82937 4.28443 8.82876 4.22464C8.82815 4.16486 8.80358 4.10781 8.76055 4.06626C6.85431 2.29457 3.90225 2.29457 1.99601 4.06626C1.95295 4.10781 1.92838 4.16488 1.92782 4.22469C1.92725 4.28449 1.95074 4.34202 1.99301 4.38437L2.79369 5.19293C2.87622 5.27549 3.0096 5.27723 3.09426 5.19685C3.71983 4.63086 4.53354 4.31726 5.37747 4.31692ZM6.97956 6.08618C6.98079 6.14613 6.9572 6.20393 6.91436 6.24593L5.52895 7.64288C5.48833 7.68394 5.43296 7.70704 5.37519 7.70704C5.31742 7.70704 5.26205 7.68394 5.22144 7.64288L3.83579 6.24593C3.79298 6.2039 3.76944 6.14608 3.7707 6.08613C3.77197 6.02617 3.79795 5.9694 3.84249 5.92921C4.72727 5.18149 6.02311 5.18149 6.90789 5.92921C6.9524 5.96943 6.97833 6.02622 6.97956 6.08618Z" fill="white"/>
</svg>
