<svg width="107" height="91" viewBox="0 0 107 91" fill="none" xmlns="http://www.w3.org/2000/svg">
<path d="M102.002 5.21777L47.9673 59.4286L23.4062 34.7873" stroke="white" stroke-width="8.46651" stroke-linecap="round" stroke-linejoin="round"/>
<path fill-rule="evenodd" clip-rule="evenodd" d="M59.0054 3.29041C54.5536 1.80455 49.7918 1 44.8428 1C20.0768 1 0 21.1472 0 46C0 70.8528 20.0768 91 44.8428 91C69.6087 91 89.6855 70.8528 89.6855 46C89.6855 38.1351 87.6749 30.7415 84.1413 24.3085L78.1802 31.3566C80.1342 35.8377 81.219 40.79 81.219 46C81.219 66.2049 64.9049 82.5335 44.8428 82.5335C24.7806 82.5335 8.46651 66.2049 8.46651 46C8.46651 25.7951 24.7806 9.46651 44.8428 9.46651C48.4937 9.46651 52.0206 10.0073 55.3476 11.0138L59.0054 3.29041Z" fill="white"/>
</svg>
