<svg width="182" height="95" viewBox="0 0 182 95" fill="none" xmlns="http://www.w3.org/2000/svg">
<path d="M181.187 73.3281V75.2922H179.223" stroke="#C5E2D2" stroke-width="0.982042" stroke-miterlimit="10"/>
<path d="M175.297 75.291H4.42188" stroke="#C5E2D2" stroke-width="0.982042" stroke-miterlimit="10" stroke-dasharray="3.93 3.93"/>
<path d="M2.45627 75.2922H0.492188V73.3281" stroke="#C5E2D2" stroke-width="0.982042" stroke-miterlimit="10"/>
<path d="M0.492188 69.2976V22.9648" stroke="#C5E2D2" stroke-width="0.982042" stroke-miterlimit="10" stroke-dasharray="4.03 4.03"/>
<path d="M0.492188 20.9524V18.9883H2.45627" stroke="#C5E2D2" stroke-width="0.982042" stroke-miterlimit="10"/>
<path d="M6.38281 18.9883H177.258" stroke="#C5E2D2" stroke-width="0.982042" stroke-miterlimit="10" stroke-dasharray="3.93 3.93"/>
<path d="M179.223 18.9883H181.187V20.9524" stroke="#C5E2D2" stroke-width="0.982042" stroke-miterlimit="10"/>
<path d="M181.188 24.9824V71.3152" stroke="#C5E2D2" stroke-width="0.982042" stroke-miterlimit="10" stroke-dasharray="4.03 4.03"/>
<path d="M76.3662 71.5634L42.9375 94.278V22.7166L76.3662 0.00195312V71.5634Z" fill="#B8DDC6"/>
<path d="M87.1911 71.5634L53.7656 94.278V22.7166L87.1911 0.00195312V71.5634Z" fill="#8FD1AB"/>
<path d="M97.7848 71.5634L64.3594 94.278V22.7166L97.7848 0.00195312V71.5634Z" fill="#45C47E"/>
<path d="M74.7148 23.0895L106.729 1.33398V71.1866L74.7148 92.9454V23.0895Z" fill="white"/>
<path d="M106.022 2.66983V70.8137L75.422 91.6101V23.4662L106.022 2.66983ZM107.437 0.00195312L74.0078 22.7166V94.278L107.437 71.5634V0.00195312Z" fill="#222222"/>
<path d="M80.8359 51.4351V36.3705L83.1896 34.4883" stroke="#02D871" stroke-width="1.41087" stroke-linecap="round" stroke-linejoin="round"/>
<path d="M80.3633 62.7344V84.719L90.2492 78.3194" stroke="#02D871" stroke-width="1.41087" stroke-linecap="round" stroke-linejoin="round"/>
<path d="M80.3633 74.5645L90.2492 67.7949" stroke="#02D871" stroke-width="1.41087" stroke-linecap="round" stroke-linejoin="round"/>
<path d="M95.4297 29.7812V39.9028" stroke="#02D871" stroke-width="1.41087" stroke-linecap="round" stroke-linejoin="round"/>
<path d="M80.2026 61.9848C80.1524 61.9881 80.1021 61.9881 80.052 61.9848C79.4562 61.8997 78.9128 61.2876 78.5626 60.3055C78.1326 58.9613 78.0294 57.5338 78.2614 56.1417C78.6968 53.0777 80.268 51.022 81.4596 51.022C81.5108 51.0187 81.5622 51.0187 81.6134 51.022C82.2059 51.1071 82.7493 51.7192 83.1029 52.7013C83.5315 54.0458 83.6347 55.4729 83.404 56.8651C82.9818 59.9291 81.4105 61.9848 80.2026 61.9848Z" fill="white"/>
<path d="M81.4725 51.7234H81.5281C81.7835 51.7626 82.1665 52.1522 82.4513 52.9444C82.8379 54.1805 82.9287 55.4901 82.7164 56.7678C82.2941 59.7336 80.8636 61.2819 80.2155 61.2819H80.1631C79.9078 61.2459 79.5084 60.8564 79.2367 60.0642C78.8534 58.8263 78.7626 57.5164 78.9716 56.2375C79.3938 53.275 80.8243 51.7234 81.4725 51.7234ZM81.4725 50.3125C79.7506 50.3125 78.0386 52.7872 77.5738 56.0378C77.0893 59.4488 78.1565 62.4244 79.9634 62.6797C80.0468 62.6926 80.1311 62.6992 80.2155 62.6993C81.9406 62.6993 83.6526 60.2246 84.1174 56.9707C84.6019 53.5598 83.5315 50.5875 81.7278 50.3289C81.6431 50.3185 81.5578 50.3131 81.4725 50.3125Z" fill="#9AC1F8"/>
<path d="M84.2102 37.5946C84.1233 37.5946 84.0401 37.5601 83.9787 37.4987C83.9173 37.4373 83.8828 37.354 83.8828 37.2672V29.8495C83.8841 29.7987 83.8972 29.7489 83.921 29.704C83.9449 29.6591 83.9789 29.6204 84.0203 29.5909L97.5168 20.4907C97.5637 20.4583 97.6185 20.4394 97.6754 20.4361C97.7323 20.4327 97.789 20.4451 97.8393 20.4718C97.8896 20.4985 97.9316 20.5385 97.9608 20.5874C97.9899 20.6363 98.0051 20.6923 98.0046 20.7493V28.1768C98.0038 28.2282 97.991 28.2787 97.9671 28.3241C97.9432 28.3696 97.909 28.4089 97.8671 28.4387L84.3706 37.5389C84.3229 37.5713 84.2676 37.5905 84.2102 37.5946Z" fill="white"/>
<path d="M97.3164 21.4897V27.9711L84.6023 36.5411V30.0596L97.3164 21.4897ZM97.706 19.7285C97.5035 19.7277 97.3057 19.7894 97.1397 19.9053L83.6399 29.0055C83.5017 29.0988 83.3885 29.2246 83.3103 29.3719C83.2321 29.5192 83.1913 29.6834 83.1914 29.8501V37.2809C83.1914 37.4149 83.2178 37.5475 83.2692 37.6712C83.3206 37.795 83.3959 37.9073 83.4907 38.0019C83.5856 38.0965 83.6982 38.1714 83.8221 38.2224C83.946 38.2734 84.0788 38.2994 84.2127 38.2989C84.4147 38.2997 84.6122 38.2392 84.779 38.1254L98.2788 29.0252C98.4173 28.9314 98.5306 28.805 98.6088 28.6572C98.687 28.5094 98.7277 28.3446 98.7273 28.1774V20.7498C98.7273 20.479 98.6197 20.2192 98.4282 20.0277C98.2366 19.8361 97.9769 19.7285 97.706 19.7285Z" fill="#6091CC"/>
<path d="M93.1555 47.7582C93.0687 47.7582 92.9854 47.7237 92.924 47.6623C92.8626 47.6009 92.8281 47.5176 92.8281 47.4308V41.6368C92.8279 41.5845 92.841 41.533 92.8662 41.4872C92.8914 41.4413 92.9279 41.4027 92.9722 41.3749L101.293 36.0784C101.342 36.0469 101.399 36.0299 101.457 36.0293C101.544 36.0293 101.627 36.0638 101.688 36.1252C101.75 36.1866 101.784 36.2698 101.784 36.3566V42.0656C101.783 42.1181 101.77 42.1696 101.745 42.2157C101.72 42.2619 101.684 42.3013 101.64 42.3307L93.3224 47.7189C93.2713 47.7466 93.2136 47.7601 93.1555 47.7582Z" fill="white"/>
<path d="M101.08 37.0507V41.8299L93.5509 46.7107V41.8528L101.08 37.0605V37.0507ZM101.479 35.3223C101.287 35.3241 101.098 35.3797 100.936 35.4827L92.6081 40.7791C92.4636 40.8708 92.3446 40.9974 92.2622 41.1474C92.1798 41.2973 92.1366 41.4657 92.1367 41.6368V47.4439C92.1367 47.5779 92.1632 47.7106 92.2145 47.8343C92.2659 47.958 92.3412 48.0704 92.4361 48.165C92.5309 48.2595 92.6436 48.3345 92.7674 48.3854C92.8913 48.4364 93.0241 48.4624 93.158 48.462C93.3534 48.4622 93.5446 48.4053 93.708 48.2983L102.026 42.9102C102.169 42.8175 102.287 42.6905 102.369 42.5407C102.451 42.391 102.494 42.2232 102.494 42.0525V36.337C102.492 36.0684 102.385 35.8113 102.195 35.6214C102.005 35.4314 101.748 35.324 101.479 35.3223Z" fill="#6091CC"/>
<path d="M91.2727 79.1673C91.1858 79.1673 91.1026 79.1328 91.0412 79.0714C90.9798 79.01 90.9453 78.9267 90.9453 78.8399V74.149C90.9466 74.0942 90.9617 74.0406 90.9892 73.9931C91.0166 73.9456 91.0556 73.9058 91.1024 73.8773L97.7738 70.0015C97.8202 69.9735 97.8734 69.9587 97.9276 69.959C98.0144 69.959 98.0977 69.9935 98.1591 70.0549C98.2205 70.1163 98.255 70.1995 98.255 70.2863V74.9641C98.254 75.0186 98.2394 75.0721 98.2125 75.1195C98.1857 75.167 98.1474 75.2069 98.1011 75.2358L91.4298 79.1247C91.3818 79.1519 91.3278 79.1665 91.2727 79.1673Z" fill="white"/>
<path d="M97.5466 70.9411V74.735L91.6543 78.1525V74.3749L97.5466 70.9574V70.9411ZM97.9394 69.252C97.7595 69.2512 97.5828 69.2999 97.4287 69.3927L90.7574 73.2685C90.6031 73.358 90.475 73.4864 90.386 73.641C90.2969 73.7955 90.25 73.9707 90.25 74.1491V78.8531C90.25 78.9872 90.2764 79.12 90.3277 79.2439C90.3791 79.3678 90.4543 79.4804 90.5491 79.5752C90.644 79.6701 90.7566 79.7453 90.8805 79.7966C91.0044 79.848 91.1372 79.8744 91.2713 79.8744C91.4512 79.8751 91.6279 79.8264 91.782 79.7336L98.4533 75.8578C98.6076 75.7684 98.7357 75.6399 98.8248 75.4854C98.9138 75.3308 98.9607 75.1556 98.9607 74.9773V70.2733C98.9607 70.0024 98.8531 69.7426 98.6616 69.5511C98.47 69.3596 98.2103 69.252 97.9394 69.252Z" fill="#828282"/>
<path d="M91.2727 69.6486C91.1859 69.6486 91.1026 69.6141 91.0412 69.5527C90.9798 69.4913 90.9454 69.4081 90.9454 69.3213V64.7024C90.9445 64.65 90.9573 64.5983 90.9826 64.5523C91.0078 64.5064 91.0447 64.4679 91.0894 64.4405L99.4073 59.0491C99.4575 59.018 99.5152 59.001 99.5742 59C99.661 59 99.7443 59.0345 99.8057 59.0959C99.8671 59.1573 99.9016 59.2405 99.9016 59.3273V63.9593C99.9018 64.0116 99.8887 64.0631 99.8635 64.1089C99.8383 64.1547 99.8018 64.1934 99.7575 64.2212L91.4429 69.5962C91.3927 69.6303 91.3334 69.6485 91.2727 69.6486Z" fill="white"/>
<path d="M99.1866 60.0377V63.7335L91.6576 68.611V64.9152L99.1866 60.0377ZM99.5761 58.293C99.3809 58.2935 99.1899 58.3503 99.0262 58.4566L90.7148 63.835C90.5724 63.9282 90.4553 64.0554 90.3742 64.2051C90.293 64.3548 90.2504 64.5223 90.25 64.6926V69.3344C90.25 69.6053 90.3576 69.865 90.5491 70.0566C90.7407 70.2481 91.0005 70.3557 91.2713 70.3557C91.4675 70.3547 91.6594 70.298 91.8245 70.192L100.142 64.817C100.285 64.7251 100.403 64.5987 100.484 64.4493C100.566 64.3 100.608 64.1326 100.607 63.9626V59.3143C100.607 59.0434 100.5 58.7836 100.308 58.5921C100.117 58.4006 99.8568 58.293 99.5859 58.293H99.5761Z" fill="#828282"/>
<path d="M83.8984 23.0895L115.91 1.33398V71.1866L83.8984 92.9454V23.0895Z" fill="white"/>
<path d="M115.206 2.66983V70.8137L84.6023 91.6101V23.4662L115.206 2.66983ZM116.617 0.00195312L83.1914 22.7166V94.278L116.617 71.5634V0.00195312Z" fill="#222222"/>
<path d="M91.9875 37.6469C91.9007 37.6469 91.8174 37.6124 91.756 37.551C91.6946 37.4896 91.6602 37.4063 91.6602 37.3195V31.5157C91.6611 31.4632 91.6747 31.4117 91.6998 31.3655C91.7249 31.3194 91.7607 31.2799 91.8042 31.2505L100.122 25.9573C100.172 25.9262 100.23 25.9092 100.289 25.9082C100.376 25.9082 100.459 25.9427 100.521 26.0041C100.582 26.0655 100.616 26.1487 100.616 26.2356V31.9314C100.616 31.9836 100.603 32.0349 100.578 32.0811C100.554 32.1272 100.519 32.1668 100.476 32.1965L92.1545 37.5847C92.1056 37.6205 92.0478 37.642 91.9875 37.6469Z" fill="white"/>
<path d="M99.8936 26.9387V31.718L92.3646 36.5987V31.7311L99.8936 26.9387ZM100.293 25.207C100.099 25.2072 99.9095 25.2629 99.7463 25.3674L91.4284 30.6541C91.2841 30.7467 91.1653 30.874 91.0829 31.0244C91.0006 31.1748 90.9573 31.3435 90.957 31.515V37.3189C90.957 37.5898 91.0646 37.8495 91.2562 38.0411C91.4477 38.2326 91.7075 38.3402 91.9784 38.3402C92.1746 38.3392 92.3664 38.2825 92.5316 38.1765L100.849 32.7884C100.992 32.6956 101.11 32.5685 101.191 32.4187C101.272 32.2689 101.315 32.1011 101.314 31.9307V26.2218C101.313 25.9521 101.204 25.694 101.013 25.5039C100.822 25.3137 100.563 25.207 100.293 25.207Z" fill="#6091CC"/>
<path d="M88.7141 63.7524C88.6272 63.7524 88.544 63.7179 88.4826 63.6565C88.4212 63.5951 88.3867 63.5118 88.3867 63.425V53.4147C88.3868 53.36 88.4006 53.3061 88.4269 53.258C88.4533 53.21 88.4912 53.1693 88.5373 53.1398L96.8323 47.8629C96.8823 47.8285 96.9418 47.8102 97.0025 47.8106C97.0893 47.8106 97.1726 47.845 97.234 47.9064C97.2954 47.9678 97.3299 48.0511 97.3299 48.1379V58.0565C97.3298 58.1113 97.3159 58.1652 97.2896 58.2132C97.2633 58.2612 97.2254 58.3019 97.1793 58.3315L88.8843 63.7033C88.8337 63.7363 88.7744 63.7534 88.7141 63.7524Z" fill="white"/>
<path d="M96.6066 48.8182V57.8367L89.0776 62.7174V53.6237L96.6066 48.8281V48.8182ZM96.983 47.1029C96.7877 47.1027 96.5965 47.1596 96.4331 47.2666L88.1381 52.5434C87.9916 52.6366 87.8709 52.7653 87.7874 52.9175C87.7038 53.0697 87.6601 53.2406 87.6602 53.4142V63.4245C87.6595 63.6105 87.7092 63.7933 87.804 63.9533C87.8987 64.1134 88.035 64.2449 88.1984 64.3338C88.3619 64.4227 88.5463 64.4658 88.7322 64.4584C88.9181 64.4511 89.0985 64.3935 89.2543 64.2919L97.5493 58.9234C97.6942 58.8298 97.8132 58.7013 97.8956 58.5498C97.9779 58.3982 98.021 58.2285 98.0207 58.056V48.121C98.0198 47.8472 97.9105 47.5849 97.7166 47.3917C97.5227 47.1984 97.2601 47.0898 96.9863 47.0898L96.983 47.1029Z" fill="#828282"/>
<path d="M88.6356 79.5732C88.5644 79.5732 88.4961 79.5449 88.4458 79.4946C88.3955 79.4443 88.3672 79.376 88.3672 79.3048V69.157C88.367 69.1119 88.3783 69.0675 88.4001 69.028C88.4218 68.9884 88.4533 68.9551 88.4916 68.9312L96.8946 63.5758C96.9362 63.5479 96.9852 63.5331 97.0353 63.5332C97.1068 63.5332 97.1755 63.5614 97.2263 63.6116C97.2772 63.6619 97.3062 63.7301 97.307 63.8016V73.8577C97.3073 73.9024 97.296 73.9464 97.2742 73.9854C97.2524 74.0244 97.2209 74.0571 97.1827 74.0803L88.7796 79.547C88.7352 79.5696 88.6851 79.5787 88.6356 79.5732Z" fill="white"/>
<path d="M96.6066 64.5913V73.6097L89.0776 78.4904V69.4L96.6066 64.6044V64.5913ZM97.0419 62.8301C96.8574 62.8315 96.677 62.8848 96.5214 62.984L88.1119 68.3361C87.9741 68.4245 87.8605 68.546 87.7816 68.6895C87.7027 68.833 87.661 68.994 87.6602 69.1578V79.3055C87.6602 79.566 87.7636 79.8158 87.9478 79.9999C88.132 80.1841 88.3817 80.2876 88.6422 80.2876C88.8294 80.2878 89.0127 80.2331 89.1692 80.1304L97.5821 74.6834C97.7176 74.5941 97.8289 74.4726 97.906 74.3298C97.9832 74.187 98.0237 74.0273 98.024 73.865V63.8024C98.024 63.5419 97.9205 63.2921 97.7363 63.108C97.5522 62.9238 97.3024 62.8203 97.0419 62.8203V62.8301Z" fill="#828282"/>
<path d="M95.4297 23.0895L127.444 1.33398V71.1866L95.4297 92.9454V23.0895Z" fill="white"/>
<path d="M126.738 2.66983V70.8137L96.1374 91.6101V23.4662L126.738 2.66983ZM128.152 0.00195312L94.7266 22.7166V94.278L128.152 71.5634V0.00195312Z" fill="#222222"/>
<path fill-rule="evenodd" clip-rule="evenodd" d="M102.258 54.915L103.433 54.2734V64.4212L102.258 65.0268V54.915Z" fill="white"/>
<path d="M104.14 53.084L101.551 54.4949V66.1812L104.14 64.8521V53.084Z" fill="#6091CC"/>
<path fill-rule="evenodd" clip-rule="evenodd" d="M104.848 63.5929V46.2566L107.437 44.8457V62.2639L104.848 63.5929Z" fill="#45C47E"/>
<path d="M99.4336 67.6774L107.437 62.0273" stroke="#828282" stroke-width="1.41087" stroke-linecap="round" stroke-linejoin="bevel"/>
<path d="M106.023 23.0895L138.038 1.33398V71.1866L106.023 92.9454V23.0895Z" fill="white"/>
<path d="M137.331 2.66983V70.8137L106.717 91.6101V23.4662L137.331 2.66983ZM138.745 0.00195312L105.316 22.7166V94.278L138.745 71.5634V0.00195312Z" fill="#222222"/>
<path d="M113.789 32.8378L131.679 20.834" stroke="#828282" stroke-width="1.41087" stroke-miterlimit="10" stroke-linecap="round"/>
<path d="M113.789 42.7278L131.679 30.7207" stroke="#828282" stroke-width="1.41087" stroke-miterlimit="10" stroke-linecap="round"/>
<path d="M113.789 53.0852L131.679 41.0781" stroke="#828282" stroke-width="1.41087" stroke-miterlimit="10" stroke-linecap="round"/>
<path d="M113.789 62.7343L131.679 50.7305" stroke="#828282" stroke-width="1.41087" stroke-miterlimit="10" stroke-linecap="round"/>
<path d="M113.789 72.3847L131.679 60.3809" stroke="#828282" stroke-width="1.41087" stroke-miterlimit="10" stroke-linecap="round"/>
</svg>
