<svg width="101" height="93" viewBox="0 0 101 93" fill="none" xmlns="http://www.w3.org/2000/svg">
<path d="M45.3345 85.3477C36.5861 85.3332 28.0796 82.4882 21.0977 77.2418C14.1159 71.9953 9.03731 64.632 6.62786 56.262C4.2184 47.8921 4.60871 38.9695 7.73992 30.8397C10.8711 22.7099 16.5735 15.8138 23.987 11.1913C31.4005 6.56882 40.1233 4.4706 48.8398 5.21305C57.5564 5.9555 65.7941 9.49838 72.3107 15.3074C78.8273 21.1164 83.2695 28.8766 84.9673 37.4177C86.6652 45.9588 85.5266 54.8177 81.7233 62.6585" stroke="#EF8727" stroke-width="9.44444"/>
<path d="M46.8104 22.3828V49.2059L33.7734 56.8483" stroke="#EF8727" stroke-width="7.55555" stroke-linecap="round"/>
<path d="M72.922 54.3547L55.3074 83.761C54.9442 84.3899 54.752 85.103 54.75 85.8292C54.748 86.5555 54.9361 87.2696 55.2958 87.9006C55.6554 88.5315 56.174 89.0573 56.8 89.4256C57.4259 89.794 58.1374 89.992 58.8636 89.9999H94.0929C94.8191 89.992 95.5306 89.794 96.1565 89.4256C96.7825 89.0573 97.301 88.5315 97.6607 87.9006C98.0203 87.2696 98.2085 86.5555 98.2065 85.8292C98.2044 85.103 98.0123 84.3899 97.6491 83.761L80.0344 54.3547C79.6637 53.7435 79.1417 53.2382 78.5188 52.8875C77.8959 52.5368 77.1931 52.3525 76.4782 52.3525C75.7634 52.3525 75.0606 52.5368 74.4377 52.8875C73.8148 53.2382 73.2928 53.7435 72.922 54.3547Z" fill="#EF8727" stroke="#EF8727" stroke-width="4.1593" stroke-linecap="round" stroke-linejoin="round"/>
<path d="M76.4766 65.0439V73.3626" stroke="#F7F8F7" stroke-width="4.1593" stroke-linecap="round" stroke-linejoin="round"/>
<path d="M76.4766 81.6807H76.496" stroke="#F7F8F7" stroke-width="4.1593" stroke-linecap="round" stroke-linejoin="round"/>
</svg>
