<svg width="91" height="91" viewBox="0 0 91 91" fill="none" xmlns="http://www.w3.org/2000/svg">
<path d="M86.3369 45.6684C86.3369 55.8705 82.5024 65.7 75.594 73.2071C68.6857 80.7143 59.2081 85.3507 49.0411 86.1967C38.8742 87.0428 28.7606 84.0367 20.7064 77.7747C12.6522 71.5127 7.24581 62.4523 5.55951 52.3905C3.87322 42.3287 6.03023 32.0007 11.6027 23.4549C17.1752 14.9092 25.7561 8.77 35.6433 6.25509C45.5306 3.74017 56.0019 5.03325 64.9804 9.87784C69.6937 12.4211 73.8149 15.8455 77.1479 19.9204" stroke="#EF8727" stroke-width="8.13368"/>
<path d="M48.229 58.864C52.003 58.864 55.182 57.453 57.766 54.631L61.999 58.711C60.367 60.649 58.327 62.128 55.879 63.148C53.465 64.168 50.796 64.678 47.872 64.678C44.914 64.678 42.16 64.134 39.61 63.046C37.094 61.958 34.952 60.428 33.184 58.456C31.45 56.484 30.226 54.206 29.512 51.622H23.698V48.052H28.849C28.815 47.678 28.798 47.1 28.798 46.318C28.798 45.536 28.815 44.958 28.849 44.584H23.698V41.014H29.512C30.226 38.43 31.45 36.152 33.184 34.18C34.952 32.208 37.094 30.678 39.61 29.59C42.16 28.502 44.914 27.958 47.872 27.958C50.796 27.958 53.465 28.468 55.879 29.488C58.327 30.508 60.367 31.987 61.999 33.925L57.766 37.954C55.182 35.166 52.003 33.772 48.229 33.772C45.509 33.772 43.112 34.418 41.038 35.71C38.998 37.002 37.485 38.77 36.499 41.014H51.136V44.584H35.53C35.462 45.332 35.428 45.91 35.428 46.318C35.428 46.726 35.462 47.304 35.53 48.052H51.136V51.622H36.499C37.485 53.866 38.998 55.634 41.038 56.926C43.112 58.218 45.509 58.864 48.229 58.864Z" fill="#EF8727"/>
</svg>
