<svg width="147" height="136" viewBox="0 0 147 136" fill="none" xmlns="http://www.w3.org/2000/svg">
<path d="M84.2104 43.1619H96.084V13.0067C96.084 2.15078 84.135 2 84.135 2H20.696V49.1175C20.696 54.1308 25.5 55.2239 26.9532 55.2239C28.4063 55.2239 33.8889 55.2239 33.8889 55.2239V48.4767C34.162 47.0964 34.8622 45.837 35.8904 44.8764C36.9186 43.9159 38.2227 43.3029 39.6184 43.1242L84.2104 43.1619Z" fill="white" stroke="#707070" stroke-width="2" stroke-miterlimit="10"/>
<path d="M80 21.0333H34.0133" stroke="#707070" stroke-width="2" stroke-miterlimit="10" stroke-linecap="round"/>
<path d="M61 36.1109H33.6718" stroke="#707070" stroke-width="2" stroke-miterlimit="10" stroke-linecap="round"/>
<path d="M33.8896 48.3526V55.2506H44.4062V43H38.6014C35.7366 43 33.8896 46.4678 33.8896 48.3526Z" fill="#DDEAE2" stroke="#707070" stroke-width="2" stroke-miterlimit="10"/>
<path d="M44.4053 43.0466H107.694C107.694 43.0466 119.643 42.255 119.643 51.8293V134.455H54.922C54.922 134.455 44.4053 133.965 44.4053 123.938V43.0466Z" fill="white" stroke="#707070" stroke-width="2" stroke-miterlimit="10"/>
<path d="M135.346 134.455H58.6009C60.2033 132.557 61.0823 130.153 61.0823 127.67C61.0823 125.186 60.2033 122.782 58.6009 120.885H135.346C136.96 121.301 138.391 122.242 139.414 123.558C140.437 124.874 140.995 126.493 141 128.16C141 132.645 135.346 134.455 135.346 134.455Z" fill="#DDEAE2" stroke="#707070" stroke-width="2" stroke-miterlimit="10"/>
<path d="M98.4329 85.1378C97.0723 85.1378 95.9515 85.546 95.0705 86.3623C94.1895 87.1671 93.6207 88.3398 93.3642 89.8804H100.106V92.9156H93.1133L93.0798 93.5192V94.3298L93.1133 94.8989H99.0518V97.9687H93.3976C93.9664 100.762 95.7563 102.159 98.7675 102.159C100.362 102.159 101.896 101.832 103.368 101.176V105.591C102.074 106.27 100.44 106.609 98.4663 106.609C95.734 106.609 93.4869 105.844 91.7248 104.315C89.9628 102.786 88.8531 100.67 88.3959 97.9687H86.1041V94.8989H88.078C88.0334 94.6345 88.0111 94.2781 88.0111 93.8297L88.0446 92.9156H86.1041V89.8804H88.3289C88.7416 87.0981 89.8512 84.9021 91.6579 83.2925C93.4646 81.6714 95.7229 80.8609 98.4329 80.8609C100.53 80.8609 102.492 81.3323 104.321 82.275L102.682 86.276C101.912 85.9196 101.193 85.6437 100.524 85.4482C99.8548 85.2413 99.1578 85.1378 98.4329 85.1378Z" fill="#02D871"/>
<path d="M71.4746 72.7118H57.0001" stroke="#707070" stroke-width="2" stroke-miterlimit="10" stroke-linecap="round"/>
<path d="M92 58.5765H57.4346" stroke="#707070" stroke-width="2" stroke-miterlimit="10" stroke-linecap="round"/>
<path d="M20.6953 17.0399H5.61771V6.71175C5.61771 6.71175 5.76849 2 12.2142 2H20.6953V17.0399Z" fill="#DDEAE2" stroke="#707070" stroke-width="2" stroke-miterlimit="10"/>
</svg>
