<svg width="296" height="300" viewBox="0 0 296 300" fill="none" xmlns="http://www.w3.org/2000/svg">
<g filter="url(#filter0_d)">
<mask id="path-1-inside-1" fill="white">
<path fill-rule="evenodd" clip-rule="evenodd" d="M248 282.908L256 290L256 290L264 282.908L272 290L272 290L280 282.908L288 290L288 290L288 8.99994C288 7.34308 286.657 5.99994 285 5.99994L11 5.99996C9.34315 5.99996 8.00001 7.3431 8.00001 8.99996L8 282.908L16 290L24 282.908L32 290L40 282.908L48 290L56 282.908L64 290L72 282.908L80 290L88 282.908L96 290L104 282.908L112 290L120 282.908L128 290L136 282.908L144 290L152 282.908L160 290L168 282.908L176 290L184 282.908L192 290L200 282.908L208 290L216 282.908L224 290L232 282.908L240 290L240 290L248 282.908Z"/>
</mask>
<path fill-rule="evenodd" clip-rule="evenodd" d="M248 282.908L256 290L256 290L264 282.908L272 290L272 290L280 282.908L288 290L288 290L288 8.99994C288 7.34308 286.657 5.99994 285 5.99994L11 5.99996C9.34315 5.99996 8.00001 7.3431 8.00001 8.99996L8 282.908L16 290L24 282.908L32 290L40 282.908L48 290L56 282.908L64 290L72 282.908L80 290L88 282.908L96 290L104 282.908L112 290L120 282.908L128 290L136 282.908L144 290L152 282.908L160 290L168 282.908L176 290L184 282.908L192 290L200 282.908L208 290L216 282.908L224 290L232 282.908L240 290L240 290L248 282.908Z" fill="white"/>
<path d="M256 290L255.337 290.748L255.621 291L256 291L256 290ZM248 282.908L248.663 282.16L248 281.571L247.337 282.16L248 282.908ZM256 290L256 291L256.379 291L256.663 290.748L256 290ZM264 282.908L264.663 282.16L264 281.571L263.337 282.16L264 282.908ZM272 290L271.337 290.748L271.621 291L272 291L272 290ZM272 290L272 291L272.379 291L272.663 290.748L272 290ZM280 282.908L280.663 282.16L280 281.571L279.337 282.16L280 282.908ZM288 290L287.337 290.748L287.621 291L288 291L288 290ZM288 290L288 291L289 291L289 290L288 290ZM8.00001 8.99996L9.00001 8.99996L8.00001 8.99996ZM8 282.908L7 282.908L7 283.358L7.33664 283.656L8 282.908ZM16 290L15.3366 290.748L16 291.336L16.6634 290.748L16 290ZM24 282.908L24.6634 282.16L24 281.571L23.3366 282.16L24 282.908ZM32 290L31.3366 290.748L32 291.336L32.6634 290.748L32 290ZM40 282.908L40.6634 282.16L40 281.571L39.3366 282.16L40 282.908ZM48 290L47.3366 290.748L48 291.336L48.6634 290.748L48 290ZM56 282.908L56.6634 282.16L56 281.571L55.3366 282.16L56 282.908ZM64 290L63.3366 290.748L64 291.336L64.6634 290.748L64 290ZM72 282.908L72.6634 282.16L72 281.571L71.3366 282.16L72 282.908ZM80 290L79.3366 290.748L80 291.336L80.6634 290.748L80 290ZM88 282.908L88.6634 282.16L88 281.571L87.3366 282.16L88 282.908ZM96 290L95.3366 290.748L96 291.336L96.6634 290.748L96 290ZM104 282.908L104.663 282.16L104 281.571L103.337 282.16L104 282.908ZM112 290L111.337 290.748L112 291.336L112.663 290.748L112 290ZM120 282.908L120.663 282.16L120 281.571L119.337 282.16L120 282.908ZM128 290L127.337 290.748L128 291.336L128.663 290.748L128 290ZM136 282.908L136.663 282.16L136 281.571L135.337 282.16L136 282.908ZM144 290L143.337 290.748L144 291.336L144.663 290.748L144 290ZM152 282.908L152.663 282.16L152 281.571L151.337 282.16L152 282.908ZM160 290L159.337 290.748L160 291.336L160.663 290.748L160 290ZM168 282.908L168.663 282.16L168 281.571L167.337 282.16L168 282.908ZM176 290L175.337 290.748L176 291.336L176.663 290.748L176 290ZM184 282.908L184.663 282.16L184 281.571L183.337 282.16L184 282.908ZM192 290L191.337 290.748L192 291.336L192.663 290.748L192 290ZM200 282.908L200.663 282.16L200 281.571L199.337 282.16L200 282.908ZM208 290L207.337 290.748L208 291.336L208.663 290.748L208 290ZM216 282.908L216.663 282.16L216 281.571L215.337 282.16L216 282.908ZM224 290L223.337 290.748L224 291.336L224.663 290.748L224 290ZM232 282.908L232.663 282.16L232 281.571L231.337 282.16L232 282.908ZM240 290L239.337 290.748L239.621 291L240 291L240 290ZM240 290L240 291L240.379 291L240.663 290.748L240 290ZM256.663 289.252L248.663 282.16L247.337 283.656L255.337 290.748L256.663 289.252ZM256 289L256 289L256 291L256 291L256 289ZM263.337 282.16L255.337 289.252L256.663 290.748L264.663 283.656L263.337 282.16ZM272.663 289.252L264.663 282.16L263.337 283.656L271.337 290.748L272.663 289.252ZM272 289L272 289L272 291L272 291L272 289ZM279.337 282.16L271.337 289.252L272.663 290.748L280.663 283.656L279.337 282.16ZM288.663 289.252L280.663 282.16L279.337 283.656L287.337 290.748L288.663 289.252ZM288 289L288 289L288 291L288 291L288 289ZM287 8.99994L287 290L289 290L289 8.99994L287 8.99994ZM285 6.99994C286.105 6.99994 287 7.89536 287 8.99994L289 8.99994C289 6.7908 287.209 4.99994 285 4.99994L285 6.99994ZM11 6.99996L285 6.99994L285 4.99994L11 4.99996L11 6.99996ZM9.00001 8.99996C9.00001 7.89538 9.89542 6.99996 11 6.99996L11 4.99996C8.79087 4.99996 7.00001 6.79083 7.00001 8.99996L9.00001 8.99996ZM9 282.908L9.00001 8.99996L7.00001 8.99996L7 282.908L9 282.908ZM16.6634 289.252L8.66336 282.16L7.33664 283.656L15.3366 290.748L16.6634 289.252ZM23.3366 282.16L15.3366 289.252L16.6634 290.748L24.6634 283.656L23.3366 282.16ZM32.6634 289.252L24.6634 282.16L23.3366 283.656L31.3366 290.748L32.6634 289.252ZM39.3366 282.16L31.3366 289.252L32.6634 290.748L40.6634 283.656L39.3366 282.16ZM48.6634 289.252L40.6634 282.16L39.3366 283.656L47.3366 290.748L48.6634 289.252ZM55.3366 282.16L47.3366 289.252L48.6634 290.748L56.6634 283.656L55.3366 282.16ZM64.6634 289.252L56.6634 282.16L55.3366 283.656L63.3366 290.748L64.6634 289.252ZM71.3366 282.16L63.3366 289.252L64.6634 290.748L72.6634 283.656L71.3366 282.16ZM80.6634 289.252L72.6634 282.16L71.3366 283.656L79.3366 290.748L80.6634 289.252ZM87.3366 282.16L79.3366 289.252L80.6634 290.748L88.6634 283.656L87.3366 282.16ZM96.6634 289.252L88.6634 282.16L87.3366 283.656L95.3366 290.748L96.6634 289.252ZM103.337 282.16L95.3366 289.252L96.6634 290.748L104.663 283.656L103.337 282.16ZM112.663 289.252L104.663 282.16L103.337 283.656L111.337 290.748L112.663 289.252ZM119.337 282.16L111.337 289.252L112.663 290.748L120.663 283.656L119.337 282.16ZM128.663 289.252L120.663 282.16L119.337 283.656L127.337 290.748L128.663 289.252ZM135.337 282.16L127.337 289.252L128.663 290.748L136.663 283.656L135.337 282.16ZM144.663 289.252L136.663 282.16L135.337 283.656L143.337 290.748L144.663 289.252ZM151.337 282.16L143.337 289.252L144.663 290.748L152.663 283.656L151.337 282.16ZM160.663 289.252L152.663 282.16L151.337 283.656L159.337 290.748L160.663 289.252ZM167.337 282.16L159.337 289.252L160.663 290.748L168.663 283.656L167.337 282.16ZM176.663 289.252L168.663 282.16L167.337 283.656L175.337 290.748L176.663 289.252ZM183.337 282.16L175.337 289.252L176.663 290.748L184.663 283.656L183.337 282.16ZM192.663 289.252L184.663 282.16L183.337 283.656L191.337 290.748L192.663 289.252ZM199.337 282.16L191.337 289.252L192.663 290.748L200.663 283.656L199.337 282.16ZM208.663 289.252L200.663 282.16L199.337 283.656L207.337 290.748L208.663 289.252ZM215.337 282.16L207.337 289.252L208.663 290.748L216.663 283.656L215.337 282.16ZM224.663 289.252L216.663 282.16L215.337 283.656L223.337 290.748L224.663 289.252ZM231.337 282.16L223.337 289.252L224.663 290.748L232.663 283.656L231.337 282.16ZM240.663 289.252L232.663 282.16L231.337 283.656L239.337 290.748L240.663 289.252ZM240 289L240 289L240 291L240 291L240 289ZM247.337 282.16L239.337 289.252L240.663 290.748L248.663 283.656L247.337 282.16Z" fill="#DCE0DE" fill-opacity="0.5" mask="url(#path-1-inside-1)"/>
</g>
<defs>
<filter id="filter0_d" x="0" y="0" width="296" height="300" filterUnits="userSpaceOnUse" color-interpolation-filters="sRGB">
<feFlood flood-opacity="0" result="BackgroundImageFix"/>
<feColorMatrix in="SourceAlpha" type="matrix" values="0 0 0 0 0 0 0 0 0 0 0 0 0 0 0 0 0 0 127 0"/>
<feOffset dy="2"/>
<feGaussianBlur stdDeviation="4"/>
<feColorMatrix type="matrix" values="0 0 0 0 0 0 0 0 0 0 0 0 0 0 0 0 0 0 0.05 0"/>
<feBlend mode="normal" in2="BackgroundImageFix" result="effect1_dropShadow"/>
<feBlend mode="normal" in="SourceGraphic" in2="effect1_dropShadow" result="shape"/>
</filter>
</defs>
</svg>
