<svg width="242" height="311" viewBox="0 0 242 311" fill="none" xmlns="http://www.w3.org/2000/svg">
<g filter="url(#filter0_d)">
<path fill-rule="evenodd" clip-rule="evenodd" d="M223.918 9.24902L217.701 14.1486L211.483 9.24902H211.477L205.259 14.1486L199.041 9.24902L192.824 14.1486L186.607 9.24902H186.603L180.386 14.1486L174.168 9.24902H174.165L167.947 14.1486L161.73 9.24902L155.512 14.1486L149.295 9.24902H149.292L143.074 14.1486L136.857 9.24902L130.639 14.1486L124.422 9.24902H124.418L118.201 14.1486L111.983 9.24911L105.766 14.1486L99.5483 9.24902H99.5451L93.3275 14.1486L87.1101 9.24911L80.8926 14.1486L74.675 9.24902H74.6718L68.4542 14.1486L62.2368 9.24911L56.0193 14.1486L49.8017 9.24902H49.7985L43.5809 14.1486L37.3634 9.24902H37.3602L31.1426 14.1486L24.9251 9.24911L18.7076 14.1486L12.4901 9.24902H12.4883V293.918C12.4883 295.062 13.4163 295.99 14.5611 295.99H228.063C229.207 295.99 230.135 295.062 230.135 293.918V14.1483L223.918 9.24902Z" fill="white"/>
</g>
<defs>
<filter id="filter0_d" x="0.742248" y="0.266762" width="241.139" height="310.233" filterUnits="userSpaceOnUse" color-interpolation-filters="sRGB">
<feFlood flood-opacity="0" result="BackgroundImageFix"/>
<feColorMatrix in="SourceAlpha" type="matrix" values="0 0 0 0 0 0 0 0 0 0 0 0 0 0 0 0 0 0 127 0"/>
<feOffset dy="2.76377"/>
<feGaussianBlur stdDeviation="5.87302"/>
<feColorMatrix type="matrix" values="0 0 0 0 0 0 0 0 0 0 0 0 0 0 0 0 0 0 0.16 0"/>
<feBlend mode="normal" in2="BackgroundImageFix" result="effect1_dropShadow"/>
<feBlend mode="normal" in="SourceGraphic" in2="effect1_dropShadow" result="shape"/>
</filter>
</defs>
</svg>
