<svg width="182" height="81" viewBox="0 0 182 81" fill="none" xmlns="http://www.w3.org/2000/svg">
<g clip-path="url(#clip0)">
<path d="M181.183 60.8164V62.7805H179.219" stroke="#C5E2D2" stroke-width="0.982042" stroke-miterlimit="10"/>
<path d="M175.293 62.7812H4.41797" stroke="#C5E2D2" stroke-width="0.982042" stroke-miterlimit="10" stroke-dasharray="3.93 3.93"/>
<path d="M2.45237 62.7805H0.488281V60.8164" stroke="#C5E2D2" stroke-width="0.982042" stroke-miterlimit="10"/>
<path d="M0.488281 56.7878V10.4551" stroke="#C5E2D2" stroke-width="0.982042" stroke-miterlimit="10" stroke-dasharray="4.03 4.03"/>
<path d="M0.488281 8.44065V6.47656H2.45237" stroke="#C5E2D2" stroke-width="0.982042" stroke-miterlimit="10"/>
<path d="M6.37891 6.47656H177.254" stroke="#C5E2D2" stroke-width="0.982042" stroke-miterlimit="10" stroke-dasharray="3.93 3.93"/>
<path d="M179.219 6.47656H181.183V8.44065" stroke="#C5E2D2" stroke-width="0.982042" stroke-miterlimit="10"/>
<path d="M181.184 12.4668V58.7995" stroke="#C5E2D2" stroke-width="0.982042" stroke-miterlimit="10" stroke-dasharray="4.03 4.03"/>
<path d="M79.559 66.9879C79.559 66.9879 78.5999 77.4336 73.7355 78.6939C68.8711 79.9541 98.9413 78.6939 98.9413 78.6939C98.9413 78.6939 93.8379 78.3338 92.5154 66.9879C91.193 55.6421 79.559 66.9879 79.559 66.9879Z" fill="#BCBCBC"/>
<path d="M37.0033 56.3652H135.145V61.6977C135.145 63.1016 134.588 64.4479 133.595 65.4406C132.602 66.4333 131.256 66.9909 129.852 66.9909H42.2932C40.8894 66.9909 39.543 66.4333 38.5503 65.4406C37.5577 64.4479 37 63.1016 37 61.6977V56.3652H37.0033Z" fill="#D1D3D4"/>
<path d="M131.054 0H41.0957C40.0105 0 38.9697 0.431104 38.2024 1.19847C37.435 1.96584 37.0039 3.00662 37.0039 4.09184V57.0861H135.146V4.09184C135.146 3.00662 134.715 1.96584 133.947 1.19847C133.18 0.431104 132.139 0 131.054 0V0Z" fill="#353535"/>
<path d="M131.903 2.88086H40.2422V53.8423H131.903V2.88086Z" fill="white"/>
<path d="M71.5781 79.2344H100.031" stroke="#D1D3D4" stroke-width="3.27347" stroke-miterlimit="10" stroke-linecap="round"/>
<path d="M55.3329 2.88086H40.2422V53.8423H55.3329V2.88086Z" fill="#4D665A"/>
<path d="M85.8597 10.1836H81.087C80.532 10.1836 80.082 10.6335 80.082 11.1886V16.4818C80.082 17.0368 80.532 17.4867 81.087 17.4867H85.8597C86.4147 17.4867 86.8647 17.0368 86.8647 16.4818V11.1886C86.8647 10.6335 86.4147 10.1836 85.8597 10.1836Z" stroke="#B2B2B2" stroke-width="0.982042" stroke-miterlimit="10"/>
<path d="M94.598 10.1836H89.8253C89.2702 10.1836 88.8203 10.6335 88.8203 11.1886V16.4818C88.8203 17.0368 89.2702 17.4867 89.8253 17.4867H94.598C95.153 17.4867 95.603 17.0368 95.603 16.4818V11.1886C95.603 10.6335 95.153 10.1836 94.598 10.1836Z" stroke="#B2B2B2" stroke-width="0.982042" stroke-miterlimit="10"/>
<path d="M103.336 10.1836H98.5636C98.0085 10.1836 97.5586 10.6335 97.5586 11.1886V16.4818C97.5586 17.0368 98.0085 17.4867 98.5636 17.4867H103.336C103.891 17.4867 104.341 17.0368 104.341 16.4818V11.1886C104.341 10.6335 103.891 10.1836 103.336 10.1836Z" stroke="#B2B2B2" stroke-width="0.982042" stroke-miterlimit="10"/>
<path d="M85.8597 19.5762H81.087C80.532 19.5762 80.082 20.0261 80.082 20.5811V25.8743C80.082 26.4294 80.532 26.8793 81.087 26.8793H85.8597C86.4147 26.8793 86.8647 26.4294 86.8647 25.8743V20.5811C86.8647 20.0261 86.4147 19.5762 85.8597 19.5762Z" stroke="#B2B2B2" stroke-width="0.982042" stroke-miterlimit="10"/>
<path d="M94.598 19.5762H89.8253C89.2702 19.5762 88.8203 20.0261 88.8203 20.5811V25.8743C88.8203 26.4294 89.2702 26.8793 89.8253 26.8793H94.598C95.153 26.8793 95.603 26.4294 95.603 25.8743V20.5811C95.603 20.0261 95.153 19.5762 94.598 19.5762Z" stroke="#B2B2B2" stroke-width="0.982042" stroke-miterlimit="10"/>
<path d="M103.336 19.5762H98.5636C98.0085 19.5762 97.5586 20.0261 97.5586 20.5811V25.8743C97.5586 26.4294 98.0085 26.8793 98.5636 26.8793H103.336C103.891 26.8793 104.341 26.4294 104.341 25.8743V20.5811C104.341 20.0261 103.891 19.5762 103.336 19.5762Z" stroke="#B2B2B2" stroke-width="0.982042" stroke-miterlimit="10"/>
<path d="M85.8597 28.9668H81.087C80.532 28.9668 80.082 29.4167 80.082 29.9718V35.265C80.082 35.82 80.532 36.2699 81.087 36.2699H85.8597C86.4147 36.2699 86.8647 35.82 86.8647 35.265V29.9718C86.8647 29.4167 86.4147 28.9668 85.8597 28.9668Z" stroke="#B2B2B2" stroke-width="0.982042" stroke-miterlimit="10"/>
<path d="M94.598 28.9668H89.8253C89.2702 28.9668 88.8203 29.4167 88.8203 29.9718V35.265C88.8203 35.82 89.2702 36.2699 89.8253 36.2699H94.598C95.153 36.2699 95.603 35.82 95.603 35.265V29.9718C95.603 29.4167 95.153 28.9668 94.598 28.9668Z" stroke="#B2B2B2" stroke-width="0.982042" stroke-miterlimit="10"/>
<path d="M103.336 28.9668H98.5636C98.0085 28.9668 97.5586 29.4167 97.5586 29.9718V35.265C97.5586 35.82 98.0085 36.2699 98.5636 36.2699H103.336C103.891 36.2699 104.341 35.82 104.341 35.265V29.9718C104.341 29.4167 103.891 28.9668 103.336 28.9668Z" stroke="#B2B2B2" stroke-width="0.982042" stroke-miterlimit="10"/>
<path d="M103.563 39.6621H80.8611C80.4308 39.6621 80.082 40.0109 80.082 40.4412V44.7949C80.082 45.2252 80.4308 45.574 80.8611 45.574H103.563C103.993 45.574 104.342 45.2252 104.342 44.7949V40.4412C104.342 40.0109 103.993 39.6621 103.563 39.6621Z" fill="#45C47E" stroke="#45C47E" stroke-width="0.982042" stroke-miterlimit="10"/>
<path d="M144.551 33H125.262C123.46 33 122 34.4604 122 36.262V75.9922C122 77.7937 123.46 79.2542 125.262 79.2542H144.551C146.353 79.2542 147.813 77.7937 147.813 75.9922V36.262C147.813 34.4604 146.353 33 144.551 33Z" fill="#353535"/>
<path d="M146.02 35.6836H123.789C123.23 35.6836 122.777 36.1364 122.777 36.6951V75.5564C122.777 76.115 123.23 76.5678 123.789 76.5678H146.02C146.578 76.5678 147.031 76.115 147.031 75.5564V36.6951C147.031 36.1364 146.578 35.6836 146.02 35.6836Z" fill="#45C47E"/>
<path d="M140.797 51.418L134.556 57.6788L131.719 54.828" stroke="white" stroke-width="0.978591" stroke-linecap="round" stroke-linejoin="round"/>
<path d="M135.829 51.196C135.299 51.0153 134.744 50.9227 134.184 50.9219C133.046 50.9227 131.941 51.2972 131.037 51.9877C130.132 52.6782 129.48 53.6465 129.18 54.7438C128.88 55.8411 128.948 57.0066 129.375 58.0611C129.802 59.1157 130.563 60.0008 131.542 60.5806C132.521 61.1603 133.663 61.4025 134.793 61.27C135.923 61.1374 136.978 60.6374 137.796 59.8469C138.614 59.0563 139.149 58.019 139.321 56.8943C139.492 55.7697 139.289 54.6199 138.743 53.6219L138.055 54.4443C138.433 55.3198 138.501 56.2982 138.248 57.2177C137.995 58.1372 137.435 58.9428 136.662 59.5012C135.889 60.0596 134.948 60.3374 133.996 60.2886C133.043 60.2399 132.136 59.8675 131.424 59.2331C130.711 58.5986 130.237 57.7402 130.079 56.7996C129.921 55.859 130.089 54.8927 130.554 54.0604C131.02 53.2281 131.756 52.5796 132.64 52.2223C133.525 51.8649 134.504 51.82 135.418 52.0951L135.829 51.196Z" fill="white"/>
</g>
<defs>
<clipPath id="clip0">
<rect width="181.678" height="80.8712" fill="white"/>
</clipPath>
</defs>
</svg>
