<svg width="127" height="127" viewBox="0 0 127 127" fill="none" xmlns="http://www.w3.org/2000/svg">
<path d="M83.3843 43.6182L44.5234 82.4791" stroke="#EF8727" stroke-width="8.13368" stroke-linecap="round" stroke-linejoin="round"/>
<path d="M44.5241 43.6182L92.7617 91.8558" stroke="#EF8727" stroke-width="8.13368" stroke-linecap="round" stroke-linejoin="round"/>
<path d="M92.8828 91.6185C85.829 98.9891 76.2626 103.439 66.0811 104.087C55.8995 104.734 45.8466 101.53 37.9164 95.1122C29.9862 88.6939 24.7579 79.5295 23.2686 69.4367C21.7793 59.3439 24.1379 49.06 29.8763 40.6248C35.6148 32.1896 44.3141 26.2194 54.2486 23.8982C64.1831 21.5771 74.6272 23.0746 83.5092 28.0938C92.3913 33.113 99.0624 41.2872 102.199 50.995C103.846 56.0912 104.456 61.4147 104.047 66.6631" stroke="#EF8727" stroke-width="8.13368"/>
</svg>
