<svg width="182" height="101" viewBox="0 0 182 101" fill="none" xmlns="http://www.w3.org/2000/svg">
<path d="M181.187 78.291V80.2551H179.223" stroke="#C5E2D2" stroke-width="0.982042" stroke-miterlimit="10"/>
<path d="M175.297 80.2559H4.42188" stroke="#C5E2D2" stroke-width="0.982042" stroke-miterlimit="10" stroke-dasharray="3.93 3.93"/>
<path d="M2.45627 80.2551H0.492188V78.291" stroke="#C5E2D2" stroke-width="0.982042" stroke-miterlimit="10"/>
<path d="M0.492188 74.2624V27.9297" stroke="#C5E2D2" stroke-width="0.982042" stroke-miterlimit="10" stroke-dasharray="4.03 4.03"/>
<path d="M0.492188 25.9172V23.9531H2.45627" stroke="#C5E2D2" stroke-width="0.982042" stroke-miterlimit="10"/>
<path d="M6.38281 23.9531H177.258" stroke="#C5E2D2" stroke-width="0.982042" stroke-miterlimit="10" stroke-dasharray="3.93 3.93"/>
<path d="M179.223 23.9531H181.187V25.9172" stroke="#C5E2D2" stroke-width="0.982042" stroke-miterlimit="10"/>
<path d="M181.188 29.9453V76.2748" stroke="#C5E2D2" stroke-width="0.982042" stroke-miterlimit="10" stroke-dasharray="4.03 4.03"/>
<path d="M37.1641 14.2617H65.4772C70.4841 14.2617 75.2858 16.2507 78.8262 19.7911C82.3666 23.3314 84.3556 28.1332 84.3556 33.1401V99.207C84.3556 97.3477 83.9893 95.5066 83.2777 93.7888C82.5661 92.0711 81.523 90.5103 80.2082 89.1957C78.8933 87.8811 77.3323 86.8384 75.6144 86.1272C73.8966 85.4159 72.0554 85.05 70.1961 85.0504H37.1641V14.2617Z" fill="white" stroke="#222222" stroke-width="1.90037" stroke-linecap="round" stroke-linejoin="round"/>
<path d="M131.539 14.2617H103.226C98.2192 14.2617 93.4174 16.2507 89.877 19.7911C86.3366 23.3314 84.3477 28.1332 84.3477 33.1401V99.207C84.3477 95.4524 85.8391 91.8516 88.494 89.1968C91.1489 86.5419 94.7497 85.0504 98.5042 85.0504H131.539V14.2617Z" fill="white" stroke="#222222" stroke-width="1.90037" stroke-linecap="round" stroke-linejoin="round"/>
<path d="M104.678 53.9453H101.749C100.175 53.9453 98.8984 55.2215 98.8984 56.7959V59.7251C98.8984 61.2994 100.175 62.5757 101.749 62.5757H104.678C106.253 62.5757 107.529 61.2994 107.529 59.7251V56.7959C107.529 55.2215 106.253 53.9453 104.678 53.9453Z" stroke="#45C47E" stroke-width="1.66428" stroke-linecap="round" stroke-linejoin="round"/>
<path d="M116.12 53.9453H113.19C111.616 53.9453 110.34 55.2215 110.34 56.7959V59.7251C110.34 61.2994 111.616 62.5757 113.19 62.5757H116.12C117.694 62.5757 118.97 61.2994 118.97 59.7251V56.7959C118.97 55.2215 117.694 53.9453 116.12 53.9453Z" stroke="#45C47E" stroke-width="1.66428" stroke-linecap="round" stroke-linejoin="round"/>
<path d="M116.12 65.3867H113.19C111.616 65.3867 110.34 66.663 110.34 68.2373V71.1665C110.34 72.7408 111.616 74.0171 113.19 74.0171H116.12C117.694 74.0171 118.97 72.7408 118.97 71.1665V68.2373C118.97 66.663 117.694 65.3867 116.12 65.3867Z" stroke="#45C47E" stroke-width="1.66428" stroke-linecap="round" stroke-linejoin="round"/>
<path d="M104.678 65.3867H101.749C100.175 65.3867 98.8984 66.663 98.8984 68.2373V71.1665C98.8984 72.7408 100.175 74.0171 101.749 74.0171H104.678C106.253 74.0171 107.529 72.7408 107.529 71.1665V68.2373C107.529 66.663 106.253 65.3867 104.678 65.3867Z" stroke="#45C47E" stroke-width="1.66428" stroke-linecap="round" stroke-linejoin="round"/>
<path d="M128.715 36.6009C137.441 36.6009 144.515 29.5268 144.515 20.8004C144.515 12.0741 137.441 5 128.715 5C119.988 5 112.914 12.0741 112.914 20.8004C112.914 29.5268 119.988 36.6009 128.715 36.6009Z" fill="white"/>
<path d="M128.715 36.6009C137.441 36.6009 144.515 29.5268 144.515 20.8004C144.515 12.0741 137.441 5 128.715 5C119.988 5 112.914 12.0741 112.914 20.8004C112.914 29.5268 119.988 36.6009 128.715 36.6009Z" stroke="white" stroke-width="9.26575" stroke-linecap="round" stroke-linejoin="round"/>
<path d="M128.715 36.6009C137.441 36.6009 144.515 29.5268 144.515 20.8004C144.515 12.0741 137.441 5 128.715 5C119.988 5 112.914 12.0741 112.914 20.8004C112.914 29.5268 119.988 36.6009 128.715 36.6009Z" stroke="#45C47E" stroke-width="1.90037" stroke-linecap="round" stroke-linejoin="round"/>
<path d="M127.567 18.0592H130.682V26.9453H127.567V18.0592ZM129.124 17.0755C128.556 17.0755 128.097 16.917 127.747 16.6C127.397 16.2831 127.222 15.8896 127.222 15.4196C127.222 14.9496 127.397 14.5561 127.747 14.2392C128.097 13.9222 128.556 13.7637 129.124 13.7637C129.692 13.7637 130.151 13.9167 130.501 14.2228C130.851 14.5179 131.026 14.9004 131.026 15.3704C131.026 15.8623 130.851 16.2721 130.501 16.6C130.151 16.917 129.692 17.0755 129.124 17.0755Z" fill="#45C47E"/>
<path d="M70.9721 43.2276C70.8148 43.5826 70.7681 43.9766 70.838 44.3585C70.9078 44.7408 71.0894 45.0938 71.3598 45.3728L71.4326 45.4428C71.6508 45.6617 71.824 45.9211 71.9427 46.2064C72.062 46.4927 72.1234 46.7998 72.1234 47.11C72.1234 47.4201 72.062 47.7272 71.9427 48.0135C71.824 48.2989 71.6508 48.5583 71.4326 48.7772C70.9904 49.2193 70.3907 49.4677 69.7654 49.4677C69.1401 49.4677 68.5404 49.2193 68.0983 48.7772L68.0254 48.7072C67.748 48.4348 67.3953 48.2519 67.0128 48.1823C66.6303 48.1126 66.2358 48.1595 65.8802 48.3166C65.534 48.4683 65.2394 48.7174 65.0323 49.0337C64.8253 49.3499 64.7148 49.7195 64.7143 50.0975V50.2957C64.7254 50.6121 64.6727 50.9276 64.5593 51.2232C64.4459 51.5188 64.2741 51.7886 64.0542 52.0164C63.8343 52.2442 63.5707 52.4253 63.2793 52.5491C62.9878 52.6728 62.6744 52.7366 62.3578 52.7366C62.0412 52.7366 61.7278 52.6728 61.4363 52.5491C61.1449 52.4253 60.8813 52.2442 60.6614 52.0164C60.4415 51.7886 60.2697 51.5188 60.1563 51.2232C60.0429 50.9276 59.9902 50.6121 60.0013 50.2957V50.1908C59.9869 49.8016 59.8604 49.4249 59.6371 49.1058C59.4138 48.7867 59.1031 48.5389 58.7424 48.3921C58.3817 48.2453 57.9863 48.2057 57.6036 48.2782C57.221 48.3506 56.8674 48.532 56.5853 48.8005L56.5124 48.8704C56.2936 49.0894 56.0343 49.2637 55.7488 49.3834C55.1707 49.6204 54.5226 49.6204 53.9446 49.3834C53.6582 49.2638 53.3979 49.0895 53.178 48.8704C52.7373 48.4275 52.4899 47.8281 52.4899 47.2032C52.4899 46.5784 52.7373 45.979 53.178 45.5361L53.2509 45.4661C53.4506 45.2589 53.6024 45.0103 53.6955 44.738C53.7886 44.4657 53.8207 44.1762 53.7895 43.8901C53.7584 43.604 53.6648 43.3282 53.5153 43.0823C53.3658 42.8364 53.1641 42.6263 52.9245 42.4669C52.6087 42.256 52.2374 42.1434 51.8577 42.1434H51.6362C51.3197 42.1545 51.0043 42.1018 50.7087 41.9884C50.4131 41.875 50.1433 41.7032 49.9155 41.4832C49.6877 41.2633 49.5066 40.9998 49.3828 40.7083C49.2591 40.4169 49.1953 40.1035 49.1953 39.7869C49.1953 39.4702 49.2591 39.1568 49.3828 38.8654C49.5066 38.5739 49.6877 38.3104 49.9155 38.0905C50.1433 37.8705 50.4131 37.6988 50.7087 37.5853C51.0043 37.4719 51.3197 37.4192 51.6362 37.4303H51.7411C52.1313 37.4207 52.5097 37.2941 52.8272 37.067C53.1447 36.8399 53.3867 36.5228 53.522 36.1566C53.6788 35.801 53.7254 35.4065 53.6557 35.0241C53.5861 34.6417 53.4035 34.289 53.1314 34.0114L53.0614 33.9415C52.8424 33.7227 52.6682 33.4633 52.5485 33.1778C52.3113 32.5988 52.3113 31.9498 52.5485 31.3707C52.7905 30.7945 53.2488 30.3361 53.8251 30.0941C54.4041 29.857 55.0532 29.857 55.6322 30.0941C55.9177 30.2138 56.1771 30.3881 56.3958 30.6071L56.4658 30.677C56.7433 30.9491 57.0961 31.1318 57.4785 31.2014C57.8609 31.271 58.2553 31.2244 58.611 31.0676H58.7043C59.0534 30.9185 59.3513 30.6703 59.5611 30.3539C59.7708 30.0374 59.8833 29.6664 59.8847 29.2867V29.0856C59.9062 28.475 60.1639 27.8965 60.6034 27.4721C61.043 27.0477 61.6302 26.8105 62.2412 26.8105C62.8522 26.8105 63.4394 27.0477 63.879 27.4721C64.3186 27.8965 64.5763 28.475 64.5977 29.0856V29.1935C64.5983 29.5722 64.7109 29.9424 64.9213 30.2573C65.08 30.4978 65.2898 30.7003 65.5357 30.8504C65.7816 31.0005 66.0577 31.0945 66.3441 31.1257C66.6305 31.1569 66.9203 31.1245 67.1928 31.0308C67.4653 30.9371 67.7137 30.7845 67.9205 30.5838L67.9904 30.5138C68.4324 30.0711 69.032 29.8216 69.6576 29.8201C70.1245 29.8196 70.5811 29.9577 70.9694 30.217C71.3578 30.4762 71.6604 30.8449 71.839 31.2763C72.0175 31.7078 72.064 32.1825 71.9725 32.6404C71.8809 33.0982 71.6555 33.5186 71.3248 33.8482L71.2548 33.9182C70.9836 34.1963 70.8017 34.5491 70.7326 34.9314C70.6636 35.3137 70.7104 35.7079 70.8672 36.0634V36.1566C71.018 36.5028 71.2666 36.7975 71.5824 37.0046C71.8982 37.2117 72.2675 37.3222 72.6451 37.3225H72.8463C73.4716 37.3225 74.0714 37.5709 74.5136 38.0131C74.9558 38.4553 75.2042 39.0551 75.2042 39.6805C75.2042 40.3058 74.9558 40.9056 74.5136 41.3478C74.0714 41.79 73.4716 42.0384 72.8463 42.0384H72.7384C72.3606 42.038 71.9909 42.1482 71.675 42.3554C71.3591 42.5625 71.1107 42.8577 70.9605 43.2043L70.9721 43.2276Z" fill="white" stroke="#828282" stroke-width="1.18919" stroke-linecap="round" stroke-linejoin="round"/>
<path d="M62.2503 43.2292C62.9496 43.2292 63.6332 43.0219 64.2146 42.6334C64.796 42.2449 65.2491 41.6927 65.5167 41.0467C65.7843 40.4007 65.8543 39.6898 65.7179 39.004C65.5815 38.3181 65.2448 37.6882 64.7503 37.1937C64.2559 36.6993 63.6259 36.3626 62.9401 36.2261C62.2543 36.0897 61.5434 36.1597 60.8974 36.4273C60.2513 36.6949 59.6992 37.1481 59.3107 37.7295C58.9222 38.3109 58.7148 38.9944 58.7148 39.6937C58.7148 40.6314 59.0873 41.5306 59.7504 42.1937C60.4134 42.8567 61.3127 43.2292 62.2503 43.2292Z" fill="white" stroke="#828282" stroke-width="1.18919" stroke-linecap="round" stroke-linejoin="round"/>
<path d="M56.6674 64.7587C57.138 64.7587 57.5979 64.6191 57.9891 64.3577C58.3803 64.0962 58.6851 63.7246 58.865 63.2898C59.045 62.8551 59.0919 62.3767 58.9999 61.9153C58.9079 61.4538 58.6811 61.03 58.3482 60.6975C58.0153 60.365 57.5912 60.1387 57.1296 60.0473C56.6681 59.9559 56.1898 60.0034 55.7553 60.1838C55.3207 60.3643 54.9495 60.6696 54.6885 61.0611C54.4275 61.4526 54.2885 61.9127 54.2891 62.3832C54.2891 62.6954 54.3506 63.0046 54.4702 63.293C54.5897 63.5814 54.765 63.8434 54.9858 64.064C55.2067 64.2846 55.469 64.4595 55.7575 64.5787C56.046 64.6979 56.3552 64.7591 56.6674 64.7587Z" stroke="#828282" stroke-width="1.18919" stroke-linecap="round" stroke-linejoin="round"/>
<path d="M62.5308 64.7596C62.4222 65.0006 62.3892 65.2688 62.436 65.5289C62.4828 65.7891 62.6073 66.0289 62.7931 66.2169L62.8397 66.2636C62.9875 66.411 63.1044 66.5864 63.1837 66.7795C63.3224 67.1181 63.3398 67.4943 63.2328 67.8443C63.1259 68.1943 62.9011 68.4965 62.5967 68.6996C62.2923 68.9028 61.927 68.9944 61.5628 68.9589C61.1986 68.9234 60.8578 68.763 60.5983 68.505L60.5517 68.4583C60.4125 68.3238 60.2454 68.2216 60.0623 68.1588C59.8792 68.0961 59.6845 68.0744 59.492 68.0952C59.2996 68.1161 59.1141 68.179 58.9486 68.2795C58.7832 68.3801 58.6419 68.5157 58.5347 68.6769C58.3921 68.8888 58.316 69.1385 58.3161 69.3939V69.528C58.2986 69.9364 58.1241 70.3222 57.8289 70.605C57.5337 70.8878 57.1408 71.0456 56.732 71.0456C56.3233 71.0456 55.9303 70.8878 55.6351 70.605C55.34 70.3222 55.1654 69.9364 55.1479 69.528V69.4464C55.1414 69.1839 55.0562 68.9294 54.9035 68.7158C54.7507 68.5022 54.5373 68.3394 54.291 68.2485C54.0524 68.1426 53.7874 68.111 53.5306 68.1577C53.2738 68.2045 53.037 68.3275 52.8511 68.5108L52.8016 68.5574C52.6558 68.7058 52.4812 68.8228 52.2886 68.9014C52.0962 68.9821 51.8896 69.0237 51.6809 69.0237C51.4722 69.0237 51.2656 68.9821 51.0732 68.9014C50.6859 68.7396 50.378 68.4317 50.2163 68.0444C50.057 67.6549 50.057 67.2185 50.2163 66.829C50.2948 66.6364 50.4118 66.4618 50.5602 66.316L50.6068 66.2694C50.7926 66.0814 50.9171 65.8415 50.9639 65.5814C51.0108 65.3213 50.9777 65.0531 50.8692 64.8121C50.7681 64.5784 50.6014 64.3791 50.3893 64.2384C50.1771 64.0976 49.9287 64.0215 49.6741 64.0193H49.5371C49.1288 64.0018 48.7429 63.8272 48.4602 63.532C48.1774 63.2369 48.0195 62.8439 48.0195 62.4352C48.0195 62.0264 48.1774 61.6334 48.4602 61.3383C48.7429 61.0431 49.1288 60.8685 49.5371 60.851H49.61C49.804 60.8377 49.993 60.7841 50.1651 60.6936C50.3371 60.6032 50.4885 60.4778 50.6094 60.3256C50.7303 60.1734 50.8182 59.9977 50.8675 59.8096C50.9167 59.6216 50.9262 59.4253 50.8954 59.2334C50.8486 58.9765 50.7269 58.7392 50.5456 58.5513L50.4961 58.5047C50.3486 58.3577 50.2317 58.183 50.1518 57.9907C50.072 57.7984 50.0309 57.5922 50.0309 57.384C50.0309 57.1758 50.072 56.9696 50.1518 56.7773C50.2317 56.585 50.3486 56.4103 50.4961 56.2633C50.6435 56.1155 50.8189 55.9986 51.012 55.9194C51.2039 55.8386 51.41 55.797 51.6182 55.797C51.8264 55.797 52.0326 55.8386 52.2245 55.9194C52.4171 55.9979 52.5917 56.1149 52.7375 56.2633L52.787 56.31C52.9729 56.4932 53.2097 56.6162 53.4665 56.663C53.7233 56.7098 53.9883 56.6782 54.2269 56.5723H54.291C54.5285 56.4731 54.7314 56.3057 54.8739 56.0914C55.0166 55.8795 55.0927 55.6298 55.0925 55.3744V55.2403C55.11 54.8319 55.2846 54.4461 55.5798 54.1633C55.8749 53.8805 56.2679 53.7227 56.6766 53.7227C57.0854 53.7227 57.4784 53.8805 57.7735 54.1633C58.0687 54.4461 58.2432 54.8319 58.2608 55.2403V55.3131C58.2638 55.5681 58.3397 55.8169 58.4794 56.0302C58.5864 56.1916 58.7278 56.3274 58.8933 56.4279C59.0589 56.5285 59.2446 56.5913 59.4372 56.6119C59.6298 56.6325 59.8245 56.6104 60.0076 56.5471C60.1907 56.4838 60.3575 56.381 60.4963 56.2458L60.543 56.1992C60.6911 56.0524 60.8663 55.9356 61.0589 55.8553C61.4473 55.6959 61.8829 55.6959 62.2714 55.8553C62.4649 55.9371 62.6403 56.0565 62.7874 56.2066C62.9345 56.3567 63.0504 56.5345 63.1283 56.7297C63.2485 57.019 63.28 57.3375 63.2188 57.6447C63.1575 57.952 63.0063 58.2341 62.7843 58.4552L62.7377 58.5047C62.5545 58.6906 62.4315 58.9274 62.3847 59.1842C62.3379 59.441 62.3695 59.706 62.4754 59.9446V60.0087C62.5746 60.2462 62.7419 60.4491 62.9563 60.5916C63.1682 60.7343 63.4179 60.8104 63.6733 60.8102H63.8074C64.2158 60.8277 64.6016 61.0023 64.8844 61.2975C65.1671 61.5926 65.325 61.9856 65.325 62.3943C65.325 62.8031 65.1671 63.1961 64.8844 63.4912C64.6016 63.7864 64.2158 63.9609 63.8074 63.9785H63.7374C63.4824 63.9801 63.2333 64.056 63.0206 64.1968C62.8079 64.3375 62.6407 64.5371 62.5395 64.7713L62.5308 64.7596Z" stroke="#828282" stroke-width="1.18919" stroke-linecap="round" stroke-linejoin="round"/>
</svg>
