<svg width="606" height="425" viewBox="0 0 606 425" fill="none" xmlns="http://www.w3.org/2000/svg">
<g clip-path="url(#clip0)">
<mask id="mask0" mask-type="alpha" maskUnits="userSpaceOnUse" x="102" y="44" width="504" height="364">
<path d="M599.543 44.5469H108.701C105.387 44.5469 102.701 47.2332 102.701 50.5469V401.207C102.701 404.52 105.387 407.207 108.701 407.207H599.543C602.857 407.207 605.543 404.52 605.543 401.207V50.5469C605.543 47.2332 602.857 44.5469 599.543 44.5469Z" fill="#1C1626"/>
</mask>
<g mask="url(#mask0)">
<path d="M605.543 44.5466H102.701V407.206H605.543V44.5466Z" fill="#1C1626"/>
<path opacity="0.35" d="M391.16 93.6216C391.751 93.6216 392.231 93.1418 392.231 92.5499C392.231 91.9581 391.751 91.4783 391.16 91.4783C390.568 91.4783 390.088 91.9581 390.088 92.5499C390.088 93.1418 390.568 93.6216 391.16 93.6216Z" fill="#478CA9"/>
<path opacity="0.35" d="M408.509 96.4295C411.315 96.4295 413.59 94.1546 413.59 91.3484C413.59 88.5422 411.315 86.2673 408.509 86.2673C405.703 86.2673 403.428 88.5422 403.428 91.3484C403.428 94.1546 405.703 96.4295 408.509 96.4295Z" fill="#495671"/>
<path opacity="0.35" d="M559.223 95.0067C561.978 95.0067 564.212 92.7732 564.212 90.018C564.212 87.2628 561.978 85.0293 559.223 85.0293C556.468 85.0293 554.234 87.2628 554.234 90.018C554.234 92.7732 556.468 95.0067 559.223 95.0067Z" fill="#23284B"/>
<path opacity="0.35" d="M297.373 219.17C299.526 219.17 301.272 217.425 301.272 215.271C301.272 213.118 299.526 211.373 297.373 211.373C295.22 211.373 293.475 213.118 293.475 215.271C293.475 217.425 295.22 219.17 297.373 219.17Z" fill="#23284B"/>
<path opacity="0.35" d="M578.901 202.024C582.809 202.024 585.977 198.855 585.977 194.947C585.977 191.039 582.809 187.871 578.901 187.871C574.992 187.871 571.824 191.039 571.824 194.947C571.824 198.855 574.992 202.024 578.901 202.024Z" fill="#F2F2F2"/>
<path opacity="0.35" d="M511.239 317.614C514.106 317.614 516.431 315.289 516.431 312.422C516.431 309.554 514.106 307.23 511.239 307.23C508.371 307.23 506.047 309.554 506.047 312.422C506.047 315.289 508.371 317.614 511.239 317.614Z" fill="#F2F2F2"/>
<path opacity="0.35" d="M576.167 309.946C576.86 309.946 577.423 309.383 577.423 308.69C577.423 307.996 576.86 307.433 576.167 307.433C575.473 307.433 574.91 307.996 574.91 308.69C574.91 309.383 575.473 309.946 576.167 309.946Z" fill="#534E85"/>
<path opacity="0.35" d="M293.159 318.334C296.19 318.334 298.647 315.877 298.647 312.846C298.647 309.816 296.19 307.359 293.159 307.359C290.129 307.359 287.672 309.816 287.672 312.846C287.672 315.877 290.129 318.334 293.159 318.334Z" fill="#58E29F"/>
<path opacity="0.35" d="M398.772 377.81C399.772 377.81 400.582 377 400.582 376C400.582 375 399.772 374.189 398.772 374.189C397.772 374.189 396.961 375 396.961 376C396.961 377 397.772 377.81 398.772 377.81Z" fill="#23284B"/>
<path opacity="0.35" d="M464.772 371.713C466.017 371.713 467.026 370.704 467.026 369.459C467.026 368.214 466.017 367.205 464.772 367.205C463.527 367.205 462.518 368.214 462.518 369.459C462.518 370.704 463.527 371.713 464.772 371.713Z" fill="#23284B"/>
<path opacity="0.35" d="M596.121 283.856C598.917 283.856 601.184 281.59 601.184 278.794C601.184 275.998 598.917 273.731 596.121 273.731C593.325 273.731 591.059 275.998 591.059 278.794C591.059 281.59 593.325 283.856 596.121 283.856Z" fill="#495671"/>
<path opacity="0.35" d="M245.25 353.994C249.332 353.994 252.641 350.685 252.641 346.603C252.641 342.521 249.332 339.212 245.25 339.212C241.168 339.212 237.859 342.521 237.859 346.603C237.859 350.685 241.168 353.994 245.25 353.994Z" fill="#495671"/>
<path opacity="0.35" d="M509.484 359.223C510.107 359.223 510.612 358.718 510.612 358.096C510.612 357.473 510.107 356.969 509.484 356.969C508.862 356.969 508.357 357.473 508.357 358.096C508.357 358.718 508.862 359.223 509.484 359.223Z" fill="#58E29F"/>
<path opacity="0.35" d="M354.41 194.947C358.737 194.947 362.244 191.44 362.244 187.113C362.244 182.786 358.737 179.279 354.41 179.279C350.084 179.279 346.576 182.786 346.576 187.113C346.576 191.44 350.084 194.947 354.41 194.947Z" fill="#23284B"/>
<path opacity="0.35" d="M447.255 172.351C450.816 172.351 453.703 169.464 453.703 165.902C453.703 162.341 450.816 159.454 447.255 159.454C443.694 159.454 440.807 162.341 440.807 165.902C440.807 169.464 443.694 172.351 447.255 172.351Z" fill="#23284B"/>
<path opacity="0.35" d="M266.886 232.806C268.08 232.806 269.048 231.838 269.048 230.644C269.048 229.45 268.08 228.482 266.886 228.482C265.692 228.482 264.725 229.45 264.725 230.644C264.725 231.838 265.692 232.806 266.886 232.806Z" fill="#478CA9"/>
<path opacity="0.35" d="M415.401 175.177C417.268 175.177 418.782 173.663 418.782 171.796C418.782 169.928 417.268 168.414 415.401 168.414C413.533 168.414 412.02 169.928 412.02 171.796C412.02 173.663 413.533 175.177 415.401 175.177Z" fill="#534E85"/>
<path opacity="0.35" d="M507.155 255.735C510.267 255.735 512.79 253.212 512.79 250.1C512.79 246.987 510.267 244.464 507.155 244.464C504.043 244.464 501.52 246.987 501.52 250.1C501.52 253.212 504.043 255.735 507.155 255.735Z" fill="#58E29F"/>
<path opacity="0.35" d="M531.103 170.244C532.245 170.244 533.172 169.317 533.172 168.174C533.172 167.031 532.245 166.105 531.103 166.105C529.96 166.105 529.033 167.031 529.033 168.174C529.033 169.317 529.96 170.244 531.103 170.244Z" fill="#58E29F"/>
<path opacity="0.35" d="M283.996 297.844C286.741 297.844 288.966 295.618 288.966 292.874C288.966 290.129 286.741 287.903 283.996 287.903C281.251 287.903 279.025 290.129 279.025 292.874C279.025 295.618 281.251 297.844 283.996 297.844Z" fill="#534E85"/>
<path opacity="0.35" d="M314.665 305.77C318.319 305.77 321.28 302.808 321.28 299.155C321.28 295.502 318.319 292.541 314.665 292.541C311.012 292.541 308.051 295.502 308.051 299.155C308.051 302.808 311.012 305.77 314.665 305.77Z" fill="#478CA9"/>
<path opacity="0.35" d="M398.865 341.467C400.344 341.467 401.544 340.267 401.544 338.788C401.544 337.308 400.344 336.109 398.865 336.109C397.385 336.109 396.186 337.308 396.186 338.788C396.186 340.267 397.385 341.467 398.865 341.467Z" fill="#534E85"/>
<path opacity="0.35" d="M521.125 295.977C524.697 295.977 527.592 293.082 527.592 289.51C527.592 285.939 524.697 283.043 521.125 283.043C517.554 283.043 514.658 285.939 514.658 289.51C514.658 293.082 517.554 295.977 521.125 295.977Z" fill="#58E29F"/>
<path opacity="0.35" d="M544.682 336.755C545.814 336.755 546.733 335.837 546.733 334.704C546.733 333.571 545.814 332.653 544.682 332.653C543.549 332.653 542.631 333.571 542.631 334.704C542.631 335.837 543.549 336.755 544.682 336.755Z" fill="#58E29F"/>
<path opacity="0.35" d="M413.904 319.553C418.782 319.553 422.736 315.599 422.736 310.721C422.736 305.844 418.782 301.89 413.904 301.89C409.026 301.89 405.072 305.844 405.072 310.721C405.072 315.599 409.026 319.553 413.904 319.553Z" fill="#23284B"/>
<path opacity="0.35" d="M354.908 104.503C359.368 104.503 362.983 100.888 362.983 96.429C362.983 91.9697 359.368 88.3547 354.908 88.3547C350.449 88.3547 346.834 91.9697 346.834 96.429C346.834 100.888 350.449 104.503 354.908 104.503Z" fill="#58E29F"/>
<path opacity="0.35" d="M535.888 140.237C539.959 140.237 543.26 136.937 543.26 132.865C543.26 128.794 539.959 125.493 535.888 125.493C531.816 125.493 528.516 128.794 528.516 132.865C528.516 136.937 531.816 140.237 535.888 140.237Z" fill="#23284B"/>
<path opacity="0.35" d="M559.481 121.706C562.798 121.706 565.486 119.017 565.486 115.701C565.486 112.384 562.798 109.696 559.481 109.696C556.165 109.696 553.477 112.384 553.477 115.701C553.477 119.017 556.165 121.706 559.481 121.706Z" fill="#478CA9"/>
<path opacity="0.35" d="M281.076 130.98C283.005 130.98 284.568 129.417 284.568 127.488C284.568 125.56 283.005 123.996 281.076 123.996C279.147 123.996 277.584 125.56 277.584 127.488C277.584 129.417 279.147 130.98 281.076 130.98Z" fill="#495671"/>
<path opacity="0.35" d="M396.684 161.024C398.327 161.024 399.658 159.692 399.658 158.049C399.658 156.407 398.327 155.075 396.684 155.075C395.041 155.075 393.709 156.407 393.709 158.049C393.709 159.692 395.041 161.024 396.684 161.024Z" fill="#534E85"/>
<path opacity="0.35" d="M431.439 122.832C433.48 122.832 435.135 121.178 435.135 119.137C435.135 117.096 433.48 115.442 431.439 115.442C429.399 115.442 427.744 117.096 427.744 119.137C427.744 121.178 429.399 122.832 431.439 122.832Z" fill="#478CA9"/>
<path opacity="0.35" d="M507.358 230.662C508.389 230.662 509.225 229.826 509.225 228.796C509.225 227.765 508.389 226.93 507.358 226.93C506.328 226.93 505.492 227.765 505.492 228.796C505.492 229.826 506.328 230.662 507.358 230.662Z" fill="#23284B"/>
<path opacity="0.35" d="M233.83 310.371C236.473 310.371 238.616 308.229 238.616 305.586C238.616 302.943 236.473 300.8 233.83 300.8C231.187 300.8 229.045 302.943 229.045 305.586C229.045 308.229 231.187 310.371 233.83 310.371Z" fill="#534E85"/>
<path opacity="0.35" d="M346.835 328.755C349.661 328.755 351.953 326.463 351.953 323.637C351.953 320.81 349.661 318.519 346.835 318.519C344.008 318.519 341.717 320.81 341.717 323.637C341.717 326.463 344.008 328.755 346.835 328.755Z" fill="#58E29F"/>
<path opacity="0.35" d="M455.698 293.224C457.749 293.224 459.412 291.562 459.412 289.51C459.412 287.459 457.749 285.797 455.698 285.797C453.647 285.797 451.984 287.459 451.984 289.51C451.984 291.562 453.647 293.224 455.698 293.224Z" fill="#534E85"/>
<path opacity="0.35" d="M460.207 240.566C461.299 240.566 462.184 239.681 462.184 238.589C462.184 237.497 461.299 236.612 460.207 236.612C459.116 236.612 458.23 237.497 458.23 238.589C458.23 239.681 459.116 240.566 460.207 240.566Z" fill="#58E29F"/>
<path opacity="0.35" d="M321.281 355.139C322.097 355.139 322.759 354.478 322.759 353.661C322.759 352.845 322.097 352.183 321.281 352.183C320.465 352.183 319.803 352.845 319.803 353.661C319.803 354.478 320.465 355.139 321.281 355.139Z" fill="#495671"/>
<path opacity="0.35" d="M383.713 390.227C388.622 390.227 392.601 386.248 392.601 381.339C392.601 376.431 388.622 372.452 383.713 372.452C378.805 372.452 374.826 376.431 374.826 381.339C374.826 386.248 378.805 390.227 383.713 390.227Z" fill="#478CA9"/>
<path opacity="0.35" d="M536.571 337.236C540.326 337.236 543.37 334.192 543.37 330.436C543.37 326.681 540.326 323.637 536.571 323.637C532.816 323.637 529.771 326.681 529.771 330.436C529.771 334.192 532.816 337.236 536.571 337.236Z" fill="#495671"/>
<path opacity="0.35" d="M521.124 360.202C522.93 360.202 524.394 358.738 524.394 356.932C524.394 355.126 522.93 353.661 521.124 353.661C519.318 353.661 517.854 355.126 517.854 356.932C517.854 358.738 519.318 360.202 521.124 360.202Z" fill="#58E29F"/>
<path opacity="0.35" d="M461.536 376.776C465.72 376.776 469.112 373.384 469.112 369.201C469.112 365.017 465.72 361.625 461.536 361.625C457.353 361.625 453.961 365.017 453.961 369.201C453.961 373.384 457.353 376.776 461.536 376.776Z" fill="#23284B"/>
<path opacity="0.35" d="M261.805 156.904C266.714 156.904 270.693 152.925 270.693 148.017C270.693 143.109 266.714 139.13 261.805 139.13C256.897 139.13 252.918 143.109 252.918 148.017C252.918 152.925 256.897 156.904 261.805 156.904Z" fill="#534E85"/>
<path opacity="0.35" d="M470.091 126.343C474.142 126.343 477.426 123.059 477.426 119.008C477.426 114.956 474.142 111.672 470.091 111.672C466.04 111.672 462.756 114.956 462.756 119.008C462.756 123.059 466.04 126.343 470.091 126.343Z" fill="#58E29F"/>
<path opacity="0.35" d="M545.274 86.3043C547.519 86.3043 549.339 84.4844 549.339 82.2394C549.339 79.9945 547.519 78.1746 545.274 78.1746C543.029 78.1746 541.209 79.9945 541.209 82.2394C541.209 84.4844 543.029 86.3043 545.274 86.3043Z" fill="#534E85"/>
<path opacity="0.35" d="M306.112 170.281C307.714 170.281 309.013 168.982 309.013 167.38C309.013 165.778 307.714 164.479 306.112 164.479C304.51 164.479 303.211 165.778 303.211 167.38C303.211 168.982 304.51 170.281 306.112 170.281Z" fill="#58E29F"/>
<path opacity="0.35" d="M281.723 239.845C286.07 239.845 289.594 236.321 289.594 231.974C289.594 227.627 286.07 224.103 281.723 224.103C277.376 224.103 273.852 227.627 273.852 231.974C273.852 236.321 277.376 239.845 281.723 239.845Z" fill="#58E29F"/>
<path opacity="0.35" d="M444.391 237.739C448.585 237.739 451.985 234.339 451.985 230.145C451.985 225.951 448.585 222.551 444.391 222.551C440.197 222.551 436.797 225.951 436.797 230.145C436.797 234.339 440.197 237.739 444.391 237.739Z" fill="#495671"/>
<path opacity="0.35" d="M599.428 236.889C602.806 236.889 605.544 234.151 605.544 230.773C605.544 227.395 602.806 224.657 599.428 224.657C596.051 224.657 593.312 227.395 593.312 230.773C593.312 234.151 596.051 236.889 599.428 236.889Z" fill="#58E29F"/>
<path opacity="0.35" d="M231.132 261.611C233.99 261.611 236.306 259.295 236.306 256.437C236.306 253.58 233.99 251.264 231.132 251.264C228.275 251.264 225.959 253.58 225.959 256.437C225.959 259.295 228.275 261.611 231.132 261.611Z" fill="#495671"/>
<path opacity="0.35" d="M357.015 236.316C360.066 236.316 362.539 233.842 362.539 230.791C362.539 227.74 360.066 225.267 357.015 225.267C353.964 225.267 351.49 227.74 351.49 230.791C351.49 233.842 353.964 236.316 357.015 236.316Z" fill="#478CA9"/>
<path opacity="0.35" d="M470.129 334.298C473.323 334.298 475.912 331.708 475.912 328.515C475.912 325.321 473.323 322.731 470.129 322.731C466.935 322.731 464.346 325.321 464.346 328.515C464.346 331.708 466.935 334.298 470.129 334.298Z" fill="#F2F2F2"/>
<path opacity="0.35" d="M544.423 309.115C546.474 309.115 548.137 307.452 548.137 305.401C548.137 303.35 546.474 301.687 544.423 301.687C542.372 301.687 540.709 303.35 540.709 305.401C540.709 307.452 542.372 309.115 544.423 309.115Z" fill="#495671"/>
<path opacity="0.35" d="M260.88 330.732C261.4 330.732 261.822 330.31 261.822 329.79C261.822 329.269 261.4 328.847 260.88 328.847C260.359 328.847 259.938 329.269 259.938 329.79C259.938 330.31 260.359 330.732 260.88 330.732Z" fill="#534E85"/>
<path opacity="0.35" d="M437.685 374.133C439.317 374.133 440.641 372.81 440.641 371.177C440.641 369.545 439.317 368.221 437.685 368.221C436.052 368.221 434.729 369.545 434.729 371.177C434.729 372.81 436.052 374.133 437.685 374.133Z" fill="#478CA9"/>
<path opacity="0.35" d="M518.612 348.267C521.684 348.267 524.174 345.777 524.174 342.705C524.174 339.634 521.684 337.144 518.612 337.144C515.541 337.144 513.051 339.634 513.051 342.705C513.051 345.777 515.541 348.267 518.612 348.267Z" fill="#534E85"/>
<path opacity="0.35" d="M129.031 237.499C132.061 237.499 134.518 235.042 134.518 232.011C134.518 228.981 132.061 226.524 129.031 226.524C126 226.524 123.543 228.981 123.543 232.011C123.543 235.042 126 237.499 129.031 237.499Z" fill="#58E29F"/>
<path opacity="0.35" d="M143.627 111.655C144.627 111.655 145.438 110.844 145.438 109.844C145.438 108.844 144.627 108.033 143.627 108.033C142.627 108.033 141.816 108.844 141.816 109.844C141.816 110.844 142.627 111.655 143.627 111.655Z" fill="#23284B"/>
<path opacity="0.35" d="M110.758 54.4878C112.003 54.4878 113.012 53.4786 113.012 52.2336C113.012 50.9887 112.003 49.9795 110.758 49.9795C109.513 49.9795 108.504 50.9887 108.504 52.2336C108.504 53.4786 109.513 54.4878 110.758 54.4878Z" fill="#23284B"/>
<path opacity="0.35" d="M179.381 269.39C183.463 269.39 186.772 266.081 186.772 261.999C186.772 257.918 183.463 254.609 179.381 254.609C175.299 254.609 171.99 257.918 171.99 261.999C171.99 266.081 175.299 269.39 179.381 269.39Z" fill="#495671"/>
<path opacity="0.35" d="M114.527 253.5C117.272 253.5 119.497 251.274 119.497 248.53C119.497 245.785 117.272 243.559 114.527 243.559C111.782 243.559 109.557 245.785 109.557 248.53C109.557 251.274 111.782 253.5 114.527 253.5Z" fill="#534E85"/>
<path opacity="0.35" d="M107.746 224.584C111.399 224.584 114.36 221.622 114.36 217.969C114.36 214.316 111.399 211.354 107.746 211.354C104.092 211.354 101.131 214.316 101.131 217.969C101.131 221.622 104.092 224.584 107.746 224.584Z" fill="#478CA9"/>
<path opacity="0.35" d="M109.613 127.6C111.092 127.6 112.292 126.4 112.292 124.921C112.292 123.441 111.092 122.242 109.613 122.242C108.133 122.242 106.934 123.441 106.934 124.921C106.934 126.4 108.133 127.6 109.613 127.6Z" fill="#534E85"/>
<path opacity="0.35" d="M146.565 293.945C149.208 293.945 151.35 291.802 151.35 289.159C151.35 286.517 149.208 284.374 146.565 284.374C143.922 284.374 141.779 286.517 141.779 289.159C141.779 291.802 143.922 293.945 146.565 293.945Z" fill="#534E85"/>
<path opacity="0.35" d="M116.985 183.731C119.812 183.731 122.103 181.44 122.103 178.613C122.103 175.787 119.812 173.495 116.985 173.495C114.159 173.495 111.867 175.787 111.867 178.613C111.867 181.44 114.159 183.731 116.985 183.731Z" fill="#58E29F"/>
<path opacity="0.35" d="M154.824 191.178C155.64 191.178 156.302 190.516 156.302 189.7C156.302 188.883 155.64 188.221 154.824 188.221C154.007 188.221 153.346 188.883 153.346 189.7C153.346 190.516 154.007 191.178 154.824 191.178Z" fill="#495671"/>
<path opacity="0.35" d="M154.639 130.297C159.548 130.297 163.526 126.318 163.526 121.41C163.526 116.501 159.548 112.522 154.639 112.522C149.731 112.522 145.752 116.501 145.752 121.41C145.752 126.318 149.731 130.297 154.639 130.297Z" fill="#478CA9"/>
<path opacity="0.35" d="M214.818 177.838C216.297 177.838 217.497 176.638 217.497 175.159C217.497 173.679 216.297 172.479 214.818 172.479C213.338 172.479 212.139 173.679 212.139 175.159C212.139 176.638 213.338 177.838 214.818 177.838Z" fill="#F2F2F2"/>
<path opacity="0.35" d="M111.849 62.876C116.033 62.876 119.424 59.4843 119.424 55.3005C119.424 51.1167 116.033 47.7251 111.849 47.7251C107.665 47.7251 104.273 51.1167 104.273 55.3005C104.273 59.4843 107.665 62.876 111.849 62.876Z" fill="#23284B"/>
<path opacity="0.35" d="M102.795 316.819C105.652 316.819 107.968 314.503 107.968 311.646C107.968 308.789 105.652 306.472 102.795 306.472C99.9373 306.472 97.6211 308.789 97.6211 311.646C97.6211 314.503 99.9373 316.819 102.795 316.819Z" fill="#495671"/>
<path opacity="0.35" d="M157.651 255.532C158.172 255.532 158.594 255.11 158.594 254.59C158.594 254.07 158.172 253.648 157.651 253.648C157.131 253.648 156.709 254.07 156.709 254.59C156.709 255.11 157.131 255.532 157.651 255.532Z" fill="#534E85"/>
<path opacity="0.35" d="M123.359 79.2277C124.991 79.2277 126.315 77.9041 126.315 76.2714C126.315 74.6387 124.991 73.3152 123.359 73.3152C121.726 73.3152 120.402 74.6387 120.402 76.2714C120.402 77.9041 121.726 79.2277 123.359 79.2277Z" fill="#478CA9"/>
<mask id="mask1" mask-type="alpha" maskUnits="userSpaceOnUse" x="249" y="1" width="120" height="119">
<path d="M309.012 119.895C341.727 119.895 368.248 93.374 368.248 60.6588C368.248 27.9435 341.727 1.42261 309.012 1.42261C276.296 1.42261 249.775 27.9435 249.775 60.6588C249.775 93.374 276.296 119.895 309.012 119.895Z" fill="#B11F47"/>
</mask>
<g mask="url(#mask1)">
<path d="M309.012 119.895C341.727 119.895 368.248 93.374 368.248 60.6588C368.248 27.9435 341.727 1.42261 309.012 1.42261C276.296 1.42261 249.775 27.9435 249.775 60.6588C249.775 93.374 276.296 119.895 309.012 119.895Z" fill="#B11F47"/>
<path d="M287.949 1.4599C287.949 1.4599 314.722 38.949 307.645 57.4626C300.568 75.9762 256.945 40.538 249.795 43.716L248.797 55.9106C248.797 55.9106 277.306 54.3031 289.131 73.2048C300.956 92.1064 329.595 88.2817 336.598 83.6441C343.601 79.0064 339.129 71.5419 369.394 65.5V53.6934C369.394 53.6934 340.533 69.7866 331.868 60.6591C323.202 51.5316 308.273 17.4792 306.703 0.000244141L287.949 1.4599Z" fill="#F58C72"/>
<path d="M274.053 108.477C289.8 106.02 305.883 109.827 318.859 119.082C341.031 134.658 276.362 119.895 276.362 119.895L274.053 108.477Z" fill="#F58C72"/>
<path d="M336.191 8.03784C336.191 8.03784 318.675 35.8822 331.664 44.4553C344.653 53.0285 360.525 31.4108 360.525 31.4108C360.525 31.4108 348.016 8.92472 336.191 8.03784Z" fill="#F58C72"/>
<path d="M340.716 113.078C345.39 113.078 349.179 109.049 349.179 104.079C349.179 99.1099 345.39 95.0813 340.716 95.0813C336.043 95.0813 332.254 99.1099 332.254 104.079C332.254 109.049 336.043 113.078 340.716 113.078Z" fill="#F58C72"/>
<path d="M282.755 87.4319C285.103 87.4319 287.005 85.5293 287.005 83.1822C287.005 80.8352 285.103 78.9326 282.755 78.9326C280.408 78.9326 278.506 80.8352 278.506 83.1822C278.506 85.5293 280.408 87.4319 282.755 87.4319Z" fill="#F58C72"/>
</g>
<path d="M147.323 359.907L136.551 423.836L146.454 425L158.52 360.683L147.323 359.907Z" fill="#344D67"/>
</g>
<path d="M167.83 339.749L169.123 351.833L127.957 359.408L130.525 369.053L178.768 361.016L176.625 338.825L167.83 339.749Z" fill="#344D67"/>
<path d="M0.949229 352.332L80.0478 321.494L85.831 342.724L6.39984 363.99C6.39984 363.99 -2.59829 363.584 0.949229 352.332Z" fill="#349867"/>
<path d="M78.7539 317.928L87.1238 347.491L263.022 297.013C263.022 297.013 267.678 270.628 251.751 256.808L78.7539 317.928Z" fill="#A4D1BB"/>
<path d="M84.668 338.825L87.1254 347.509L263.023 297.031C263.723 291.749 263.798 286.403 263.245 281.104L84.668 338.825Z" fill="#84C1A0"/>
<path d="M33.1535 339.768C33.4738 345.291 34.9332 350.689 37.4401 355.621L6.39929 363.991C6.39929 363.991 -1.47176 363.03 0.948677 352.425L33.1535 339.768Z" fill="#344D67"/>
<path d="M171.211 339.749C180.354 339.749 187.766 332.337 187.766 323.194C187.766 314.051 180.354 306.639 171.211 306.639C162.068 306.639 154.656 314.051 154.656 323.194C154.656 332.337 162.068 339.749 171.211 339.749Z" fill="#344D67"/>
<path d="M171.212 332.968C176.61 332.968 180.986 328.592 180.986 323.194C180.986 317.795 176.61 313.419 171.212 313.419C165.814 313.419 161.438 317.795 161.438 323.194C161.438 328.592 165.814 332.968 171.212 332.968Z" fill="white"/>
<path d="M483.06 286.019C503.591 286.019 520.235 268.895 520.235 247.772C520.235 226.649 503.591 209.526 483.06 209.526C462.529 209.526 445.885 226.649 445.885 247.772C445.885 268.895 462.529 286.019 483.06 286.019Z" fill="#EAB215"/>
<path d="M452.148 242.045C444.018 245.5 435.722 249.066 429.163 254.978C427.273 256.388 425.959 258.437 425.468 260.743C425.409 261.808 425.596 262.873 426.016 263.853C426.436 264.834 427.077 265.704 427.888 266.397C430.733 269.002 434.761 269.704 438.401 270.443C441.746 271.127 445.145 271.607 448.545 271.958C467.611 273.634 486.819 271.46 505.028 265.565C509.789 264.109 514.454 262.356 518.996 260.318C525.046 257.68 530.654 254.128 535.625 249.786C537.045 248.619 538.257 247.219 539.21 245.648C540.179 244.067 540.49 242.171 540.078 240.363C539.321 237.592 536.568 235.873 533.907 234.82C523.708 230.608 512.234 231.384 501.24 232.252C501.665 232.98 502.251 233.601 502.952 234.068C503.653 234.536 504.452 234.837 505.287 234.95C506.959 235.079 508.64 235.079 510.312 234.95C553.086 236.797 522.47 252.724 518.424 254.904C500.778 264.364 468.925 269.15 453.552 268.023C449.727 267.727 413.273 265.639 443.205 249.842C446.383 248.16 449.801 246.959 452.998 245.315C453.687 245.029 454.292 244.571 454.753 243.985C454.987 243.698 455.115 243.339 455.115 242.969C455.115 242.598 454.987 242.239 454.753 241.952C454.033 241.361 452.998 241.657 452.148 242.045Z" fill="#B2830F"/>
<path d="M520.05 243.985L446.642 255.551C446.135 252.989 445.882 250.384 445.885 247.772C445.885 226.635 462.514 209.526 483.041 209.526C492.389 209.644 501.357 213.239 508.199 219.609C515.041 225.98 519.266 234.669 520.05 243.985Z" fill="#EAB215"/>
<path d="M502.976 237.979C506.568 237.979 509.48 235.067 509.48 231.475C509.48 227.884 506.568 224.972 502.976 224.972C499.384 224.972 496.473 227.884 496.473 231.475C496.473 235.067 499.384 237.979 502.976 237.979Z" fill="#E0C996"/>
<path d="M467.17 254.812C468.363 254.812 469.331 253.844 469.331 252.65C469.331 251.456 468.363 250.488 467.17 250.488C465.976 250.488 465.008 251.456 465.008 252.65C465.008 253.844 465.976 254.812 467.17 254.812Z" fill="#E0C996"/>
<path d="M501.074 276.873C503.023 276.873 504.603 275.293 504.603 273.344C504.603 271.394 503.023 269.814 501.074 269.814C499.125 269.814 497.545 271.394 497.545 273.344C497.545 275.293 499.125 276.873 501.074 276.873Z" fill="#E0C996"/>
<path d="M471.678 234.598C474.168 234.598 476.187 232.58 476.187 230.09C476.187 227.6 474.168 225.582 471.678 225.582C469.188 225.582 467.17 227.6 467.17 230.09C467.17 232.58 469.188 234.598 471.678 234.598Z" fill="#E0C996"/>
</g>
<defs>
<clipPath id="clip0">
<rect x="0.117188" width="605.443" height="425" fill="white"/>
</clipPath>
</defs>
</svg>
