<svg width="108" height="92" viewBox="0 0 108 92" fill="none" xmlns="http://www.w3.org/2000/svg">
<path d="M102.999 5.19092L48.4348 59.9866L23.6328 35.0795" stroke="#02A556" stroke-width="9" stroke-linecap="round" stroke-linejoin="round"/>
<path fill-rule="evenodd" clip-rule="evenodd" d="M59.8684 3.31525C55.3519 1.81326 50.5209 1 45.5 1C20.371 1 0 21.371 0 46.5C0 71.629 20.371 92 45.5 92C70.629 92 91 71.629 91 46.5C91 38.547 88.9595 31.0706 85.3736 24.5657L79.0258 32.0448C80.9396 36.4775 82 41.3649 82 46.5C82 66.6584 65.6584 83 45.5 83C25.3416 83 9 66.6584 9 46.5C9 26.3416 25.3416 10 45.5 10C49.138 10 52.6517 10.5322 55.9675 11.5231L59.8684 3.31525Z" fill="#02A556"/>
</svg>
