<svg width="141" height="141" viewBox="0 0 141 141" fill="none" xmlns="http://www.w3.org/2000/svg">
<path d="M92.623 48.6245L49.623 91.6245" stroke="#EF8727" stroke-width="9" stroke-linecap="round" stroke-linejoin="round"/>
<path d="M49.623 48.6245L92.623 91.6245" stroke="#EF8727" stroke-width="9" stroke-linecap="round" stroke-linejoin="round"/>
<path d="M103.135 101.738C95.33 109.893 84.7446 114.818 73.4786 115.534C62.2126 116.25 51.089 112.705 42.3141 105.604C33.5392 98.5017 27.7541 88.3612 26.1062 77.1934C24.4583 66.0256 27.068 54.6464 33.4177 45.3127C39.7674 35.9791 49.3932 29.373 60.3859 26.8046C71.3786 24.2362 82.9351 25.8933 92.7631 31.447C102.591 37.0008 109.973 46.0456 113.444 56.7874C115.266 62.4265 115.941 68.3169 115.488 74.1244" stroke="#EF8727" stroke-width="9"/>
</svg>
